<?xml version="1.0" encoding="UTF-8"?><svg xmlns="http://www.w3.org/2000/svg" viewBox="0 0 2000 2000"><defs><style>.d,.e{fill:none;}.e{stroke:#000;stroke-linejoin:round;stroke-width:30px;}</style></defs><g id="a"/><g id="b"><g id="c"><rect class="d" width="2000" height="2000"/><g><path d="M1000.16,1362.73c-81.4,0-160.38-15.95-234.73-47.39-71.81-30.37-136.3-73.85-191.68-129.23-55.38-55.38-98.86-119.87-129.23-191.68-31.45-74.35-47.4-153.33-47.4-234.73s15.95-160.38,47.4-234.73c30.37-71.81,73.85-136.3,129.23-191.68,55.38-55.38,119.87-98.86,191.68-129.23,74.35-31.45,153.33-47.39,234.73-47.39s160.38,15.95,234.73,47.39c71.81,30.37,136.3,73.85,191.68,129.23,55.38,55.38,98.86,119.87,129.23,191.68,31.45,74.35,47.4,153.33,47.4,234.73s-15.95,160.38-47.4,234.73c-30.37,71.81-73.85,136.3-129.23,191.68-55.38,55.38-119.87,98.86-191.68,129.23-74.35,31.45-153.33,47.39-234.73,47.39Zm0-1178.84c-77.74,0-153.15,15.22-224.13,45.24-68.57,29-130.15,70.52-183.03,123.41-52.89,52.89-94.41,114.47-123.41,183.03-30.02,70.98-45.24,146.39-45.24,224.13s15.22,153.15,45.24,224.13c29,68.57,70.52,130.15,123.41,183.03,52.89,52.89,114.47,94.41,183.03,123.41,70.98,30.02,146.39,45.24,224.13,45.24s153.15-15.22,224.13-45.24c68.57-29,130.15-70.52,183.03-123.41,52.89-52.89,94.41-114.47,123.41-183.03,30.02-70.98,45.24-146.39,45.24-224.13s-15.22-153.15-45.24-224.13c-29-68.57-70.52-130.15-123.41-183.03-52.89-52.89-114.47-94.41-183.03-123.41-70.98-30.02-146.39-45.24-224.13-45.24Z"/><polyline class="e" points="1000.16 363.52 1000.16 770.46 701.75 1088"/></g></g></g></svg>