<svg xmlns="http://www.w3.org/2000/svg" viewBox="0 0 2000 2000"><defs><style>.cls-1,.cls-2{fill:none;}.cls-2{stroke:#000;stroke-miterlimit:10;stroke-width:20px;}</style></defs><g id="Layer_2" data-name="Layer 2"><g id="Layer_1-2" data-name="Layer 1"><rect class="cls-1" width="2000" height="2000"/><rect class="cls-2" x="540" y="548" width="921" height="612"/><polygon class="cls-2" points="1521 548 480 548 540 312 1461 312 1521 548"/><line class="cls-2" x1="574" y1="264" x2="1424.6" y2="264"/><line class="cls-2" x1="623" y1="220" x2="1373" y2="220"/><rect class="cls-2" x="371" y="1061" width="73" height="284"/><rect class="cls-2" x="1553" y="1062" width="73" height="284"/><rect class="cls-2" x="444" y="1160" width="1108" height="81"/><line class="cls-2" x1="480" y1="1107.51" x2="1514.73" y2="1107.51"/><rect class="cls-2" x="623" y="682" width="750" height="370"/><path class="cls-2" d="M1002.48,743.64S866.9,857.23,887.85,950.53s114.63,90,114.63,90"/><path class="cls-2" d="M990.17,743.64s135.58,113.59,114.63,206.89-114.63,90-114.63,90"/><path class="cls-2" d="M1003.27,868.76S924.8,934.5,936.92,988.5s66.35,52.08,66.35,52.08"/><path class="cls-2" d="M990.93,868.76s78.48,65.74,66.35,119.74-66.35,52.08-66.35,52.08"/></g></g></svg>