<svg xmlns="http://www.w3.org/2000/svg" viewBox="0 0 2000 2000"><defs><style>.cls-1,.cls-2,.cls-3,.cls-4,.cls-5{fill:none;}.cls-2,.cls-3,.cls-4{stroke:#000;stroke-width:20px;}.cls-2,.cls-4,.cls-5{stroke-miterlimit:10;}.cls-3,.cls-4{stroke-linecap:round;}.cls-3{stroke-linejoin:round;}.cls-5{stroke:#cecece;stroke-width:10px;}</style></defs><g id="Layer_2" data-name="Layer 2"><g id="Layer_1-2" data-name="Layer 1"><rect class="cls-1" width="2000" height="2000"/><circle class="cls-2" cx="555.32" cy="509.39" r="101.15"/><path class="cls-2" d="M288,771v238.06s-13.4,235,260.8,235h458.09"/><path class="cls-3" d="M998.89,1244H1457c274.2,0,260.81-235,260.81-235V815H351.06"/><line class="cls-4" x1="230.55" y1="745" x2="1772.15" y2="745"/><circle class="cls-2" cx="647" cy="1271" r="27"/><circle class="cls-2" cx="1358" cy="1271" r="27"/><path class="cls-3" d="M369,745s-4-87.5,87.5-87.5h211L823.62,745Z"/><path class="cls-5" d="M975.15,154.41c0,84.51-82,84.51-82,169s82,84.52,82,169-82,84.51-82,169"/><path class="cls-5" d="M1108.15,154.41c0,84.51-82,84.51-82,169s82,84.52,82,169-82,84.51-82,169"/><path class="cls-5" d="M1242.15,154.41c0,84.51-82,84.51-82,169s82,84.52,82,169-82,84.51-82,169"/><path class="cls-5" d="M1372.15,154.41c0,84.51-82,84.51-82,169s82,84.52,82,169-82,84.51-82,169"/><path class="cls-5" d="M1505.15,154.41c0,84.51-82,84.51-82,169s82,84.52,82,169-82,84.51-82,169"/><path class="cls-5" d="M1639.15,154.41c0,84.51-82,84.51-82,169s82,84.52,82,169-82,84.51-82,169"/><path d="M1193.62,534.29V515.9q0-35.31,12.13-55.54a80.15,80.15,0,0,1,20.42-21.52q13-9.73,37-23,41.55-22.8,55.72-36.05T1333,343q0-18.39-14.16-34t-42.11-15.64q-26.87,0-43.22,16.56t-17.48,46.34l-23.54-2.2q1.47-38.62,24.83-60.7t59.41-22.07q38.25,0,59.22,21.71t21,50.76a77.73,77.73,0,0,1-2,18,110.71,110.71,0,0,1-4.41,14.53,43.89,43.89,0,0,1-8.28,12.69q-5.9,6.62-9.2,10.12t-11.77,9.19q-8.46,5.71-11.58,7.54t-13.43,7.54q-10.31,5.72-12.51,6.81-3.68,2.21-11.58,6.43t-10.85,5.89q-3,1.65-8.65,5.15t-8.46,5.52c-1.84,1.35-4,3.06-6.62,5.14a42.83,42.83,0,0,0-6.25,6.07c-1.6,2-3.13,4.05-4.6,6.26q-8.84,14-8.83,40.09H1357.3v23.54Z"/></g></g></svg>