<svg xmlns="http://www.w3.org/2000/svg" viewBox="0 0 2000 2000"><defs><style>.cls-1,.cls-2,.cls-3{fill:none;}.cls-2{stroke:#000;stroke-width:20px;}.cls-2,.cls-3{stroke-miterlimit:10;}.cls-3{stroke:#cecece;stroke-width:10px;}.cls-4{fill:#cecece;}</style></defs><g id="Layer_2" data-name="Layer 2"><g id="Layer_1-2" data-name="Layer 1"><rect class="cls-1" width="2000" height="2000"/><line class="cls-2" x1="361.28" y1="617" x2="361.28" y2="1307.97"/><line class="cls-2" x1="1660.94" y1="1081.21" x2="361.28" y2="1081.21"/><line class="cls-2" x1="1660.94" y1="1171.63" x2="361.28" y2="1171.63"/><path class="cls-2" d="M743.28,1059V826.62H1521.9s132.45-13,132.45,135.86v337.61"/><circle class="cls-2" cx="548.32" cy="916.39" r="101.15"/><path d="M1175.91,455.65V437.26q0-35.31,12.14-55.54a80,80,0,0,1,20.42-21.52q13-9.75,37-23,41.57-22.8,55.73-36t14.16-36.78q0-18.39-14.16-34T1259,214.72q-26.85,0-43.22,16.55t-17.47,46.35l-23.54-2.21q1.47-38.61,24.83-60.69t59.4-22.07q38.25,0,59.22,21.7t21,50.77a77.79,77.79,0,0,1-2,18,110.61,110.61,0,0,1-4.42,14.53,44.11,44.11,0,0,1-8.27,12.69q-5.89,6.61-9.2,10.11t-11.77,9.2q-8.46,5.7-11.59,7.54t-13.42,7.54q-10.3,5.7-12.51,6.8-3.67,2.22-11.59,6.44t-10.85,5.89q-2.94,1.65-8.64,5.15c-3.81,2.33-6.62,4.17-8.46,5.51s-4,3.07-6.62,5.15a42.33,42.33,0,0,0-6.25,6.07c-1.6,2-3.13,4.05-4.6,6.26q-8.83,14-8.83,40.09H1339.6v23.54Z"/><line class="cls-3" x1="1558.97" y1="421.09" x2="1746" y2="467.31"/><line class="cls-3" x1="1504.17" y1="521.88" x2="1715.53" y2="648.1"/><line class="cls-3" x1="1405.23" y1="584.99" x2="1495.69" y2="697.24"/><line class="cls-3" x1="1305.12" y1="621.26" x2="1327.48" y2="749.86"/><line class="cls-3" x1="1186.58" y1="611.2" x2="1110.53" y2="793.48"/><line class="cls-3" x1="1083.69" y1="566.46" x2="1012.12" y2="641.12"/><line class="cls-3" x1="1012.12" y1="493.77" x2="859.02" y2="566.46"/><line class="cls-3" x1="976.89" y1="393.86" x2="743.11" y2="417"/><line class="cls-3" x1="979.69" y1="294.7" x2="862.24" y2="261.63"/><line class="cls-3" x1="1007.65" y1="205.41" x2="854.55" y2="102.2"/><path class="cls-4" d="M1496.11,373a240.45,240.45,0,1,1-428.36-181.54l-8-8A251.63,251.63,0,1,0,1507.39,373Z"/></g></g></svg>