<svg xmlns="http://www.w3.org/2000/svg" viewBox="0 0 2000 2000"><defs><style>.cls-1,.cls-2,.cls-3,.cls-4,.cls-6{fill:none;}.cls-2,.cls-3,.cls-6{stroke:#000;}.cls-2{stroke-linejoin:round;}.cls-2,.cls-3{stroke-width:20px;}.cls-3,.cls-4,.cls-6{stroke-miterlimit:10;}.cls-4{stroke:#cecece;}.cls-4,.cls-6{stroke-width:10px;}.cls-5{fill:#cecece;}</style></defs><g id="Layer_2" data-name="Layer 2"><g id="Layer_1-2" data-name="Layer 1"><rect class="cls-1" width="2000" height="2000"/><polyline class="cls-2" points="1681 483 1248 483 814 871.51 1672 871.51"/><line class="cls-2" x1="1026.24" y1="875.29" x2="1026.24" y2="1329"/><polyline class="cls-2" points="266.81 1329 266.81 999.29 1018.02 999.29"/><polygon class="cls-3" points="560.72 994.74 512.77 946.79 456.7 946.79 409.08 994.41 560.72 994.74"/><rect class="cls-3" x="426.45" y="865.32" width="117.7" height="45.83" transform="translate(1373.54 402.94) rotate(90)"/><line class="cls-4" x1="408.97" y1="611.35" x2="460.25" y2="776.2"/><line class="cls-4" x1="487.03" y1="598.75" x2="487.03" y2="765.82"/><line class="cls-4" x1="513.32" y1="775.29" x2="564.6" y2="610.44"/><path class="cls-5" d="M387.51,668.63a58.13,58.13,0,0,1,21-114.2v0s1.36.14,3.62.6a58.26,58.26,0,0,1,8.43,2.31h0l.88.31a65.35,65.35,0,0,1,13.94,7,54.14,54.14,0,0,1,8.19-21.84h0a58.11,58.11,0,0,1,104.09,9.56,51.47,51.47,0,0,1,3.15,12.26A92.16,92.16,0,0,1,564,558.07v0a58.13,58.13,0,1,1,35.32,110.47l-3.8,13.59A70.79,70.79,0,1,0,559,546.49a70.77,70.77,0,0,0-131.34,0,70.78,70.78,0,1,0-36,135.73Z"/><line class="cls-6" x1="484.9" y1="834.81" x2="484.9" y2="802.5"/><line class="cls-6" x1="453.42" y1="801.68" x2="516.76" y2="801.68"/><line class="cls-4" x1="1024.32" y1="590.33" x2="898.3" y2="666.4"/><line class="cls-4" x1="999.47" y1="506.27" x2="817.09" y2="552.26"/><line class="cls-4" x1="1018.83" y1="418.72" x2="909.31" y2="406.94"/><line class="cls-4" x1="1053.32" y1="345.04" x2="971.76" y2="287.64"/><line class="cls-4" x1="1122.8" y1="286.43" x2="1065.4" y2="146.87"/><line class="cls-4" x1="1202.55" y1="255.01" x2="1200.88" y2="176.02"/><line class="cls-4" x1="1280.49" y1="255.62" x2="1323.93" y2="133.63"/><line class="cls-4" x1="1353.5" y1="290.56" x2="1467.3" y2="151.76"/><line class="cls-4" x1="1405.56" y1="345.65" x2="1486.88" y2="300.06"/><line class="cls-4" x1="1438.69" y1="408.99" x2="1577.17" y2="382.04"/><path class="cls-5" d="M1084.26,582.34A183.71,183.71,0,1,1,1413.76,449h8.62a192.26,192.26,0,1,0-344.22,139.44Z"/></g></g></svg>