<svg xmlns="http://www.w3.org/2000/svg" viewBox="0 0 2000 2000"><defs><style>.cls-1,.cls-2,.cls-3{fill:none;}.cls-2{stroke:#000;stroke-width:20px;}.cls-2,.cls-3{stroke-miterlimit:10;}.cls-3{stroke:#cecece;stroke-width:10px;}</style></defs><g id="Layer_2" data-name="Layer 2"><g id="Layer_1-2" data-name="Layer 1"><rect class="cls-1" width="2000" height="2000"/><rect class="cls-2" x="812.75" y="851.95" width="387.05" height="490.24" rx="1.71"/><line class="cls-2" x1="945.88" y1="933.35" x2="1149.8" y2="933.35"/><circle class="cls-2" cx="889.28" cy="933.35" r="24.5"/><line class="cls-3" x1="274.7" y1="848.95" x2="766.2" y2="848.95"/><line class="cls-3" x1="1242.7" y1="848.95" x2="1734.2" y2="848.95"/><line class="cls-3" x1="278.2" y1="848.95" x2="278.2" y2="1348.95"/><line class="cls-3" x1="762.54" y1="848.95" x2="762.54" y2="1348.95"/><line class="cls-3" x1="1246.87" y1="848.95" x2="1246.87" y2="1348.95"/><line class="cls-3" x1="1731.2" y1="848.95" x2="1731.2" y2="1348.95"/><line class="cls-3" x1="769.2" y1="666.64" x2="275.2" y2="666.64"/><line class="cls-3" x1="1737.2" y1="666.64" x2="1243.2" y2="666.95"/><line class="cls-3" x1="1733.05" y1="666.64" x2="1733.05" y2="166.64"/><line class="cls-3" x1="1248.71" y1="666.64" x2="1248.71" y2="166.64"/><line class="cls-3" x1="764.38" y1="666.64" x2="764.38" y2="166.64"/><line class="cls-3" x1="280.05" y1="666.64" x2="280.05" y2="166.64"/><line class="cls-3" x1="349.07" y1="608.28" x2="695.09" y2="608.28"/><line class="cls-3" x1="1253.2" y1="666.64" x2="759.2" y2="666.64"/><line class="cls-3" x1="833.07" y1="608.28" x2="1179.09" y2="608.28"/><line class="cls-3" x1="349.07" y1="909.28" x2="695.09" y2="909.28"/><line class="cls-3" x1="1317.07" y1="608.28" x2="1663.09" y2="608.28"/><line class="cls-3" x1="1317.07" y1="909.28" x2="1663.09" y2="909.28"/></g></g></svg>