<svg xmlns="http://www.w3.org/2000/svg" viewBox="0 0 2000 2000"><defs><style>.cls-1,.cls-2,.cls-3,.cls-4{fill:none;}.cls-2,.cls-4{stroke:#000;stroke-width:20px;}.cls-2{stroke-linejoin:round;}.cls-3{stroke:#cecece;stroke-width:10px;}.cls-3,.cls-4{stroke-miterlimit:10;}.cls-5{fill:#cecece;}</style></defs><g id="Layer_2" data-name="Layer 2"><g id="Layer_1-2" data-name="Layer 1"><rect class="cls-1" width="2000" height="2000"/><polyline class="cls-2" points="607.75 1278.97 1114.75 1278.97 1114.75 926.11 1342.97 926.11 1342.97 1279.41 1447.75 1279.41"/><polyline class="cls-2" points="1575 218.21 976.49 218.21 657.75 536.94 1447.47 536.94"/><line class="cls-2" x1="777.7" y1="536.94" x2="777.7" y2="1240.97"/><path class="cls-3" d="M1418.56,1325.47V806.65c0-.26,101-95.65,101-95.65"/><circle class="cls-3" cx="1419.61" cy="807" r="214"/><line class="cls-3" x1="1418.56" y1="907.16" x2="1360.63" y2="849.23"/><polygon class="cls-4" points="777.7 866.73 732.72 911.72 732.72 964.33 777.39 1009 777.7 866.73"/><rect class="cls-4" x="641" y="916" width="92" height="43"/><line class="cls-3" x1="453" y1="1011.11" x2="607.67" y2="963"/><line class="cls-3" x1="441.18" y1="937.87" x2="597.92" y2="937.87"/><line class="cls-3" x1="606.81" y1="913.21" x2="452.14" y2="865.09"/><path class="cls-5" d="M506.73,1031.25a54.54,54.54,0,0,1-107.14-19.7h0s.13-1.27.56-3.39a53.36,53.36,0,0,1,2.18-7.91v0c.1-.27.19-.55.3-.82a60.76,60.76,0,0,1,6.53-13.08,50.93,50.93,0,0,1-20.49-7.69h0a54.52,54.52,0,0,1,9-97.66,48.22,48.22,0,0,1,11.5-3A86.84,86.84,0,0,1,403,865.63h0a54.54,54.54,0,1,1,103.65-33.14l12.75,3.56a66.41,66.41,0,1,0-127.27,34.34,66.39,66.39,0,0,0,0,123.22,66.4,66.4,0,1,0,127.34,33.78Z"/></g></g></svg>