<svg xmlns="http://www.w3.org/2000/svg" viewBox="0 0 2000 2000"><defs><style>.cls-1,.cls-2,.cls-3,.cls-4,.cls-5{fill:none;}.cls-2,.cls-3,.cls-4{stroke:#000;}.cls-2{stroke-linejoin:round;}.cls-2,.cls-3{stroke-width:20px;}.cls-3,.cls-4,.cls-5{stroke-miterlimit:10;}.cls-4,.cls-5{stroke-width:10px;}.cls-5{stroke:#cecece;}.cls-6{fill:#cecece;}</style></defs><g id="Layer_2" data-name="Layer 2"><g id="Layer_1-2" data-name="Layer 1"><rect class="cls-1" width="2000" height="2000"/><polyline class="cls-2" points="1537.2 434.96 895.7 434.96 334.2 996.46 1458.2 996.46"/><polygon class="cls-3" points="612.8 542.77 613.14 717.01 546.94 783.67 546.94 542.77 612.8 542.77"/><line class="cls-4" x1="579.3" y1="550.56" x2="579.3" y2="504.14"/><line class="cls-4" x1="534.06" y1="502.95" x2="625.08" y2="502.95"/><line class="cls-5" x1="503.12" y1="311.31" x2="554.4" y2="476.16"/><line class="cls-5" x1="581.19" y1="298.71" x2="581.19" y2="465.77"/><line class="cls-5" x1="607.47" y1="475.25" x2="658.76" y2="310.4"/><path class="cls-6" d="M481.66,368.58a58.13,58.13,0,0,1,21-114.2v0s1.35.14,3.61.6a57.94,57.94,0,0,1,8.43,2.32h0l.88.31a65,65,0,0,1,13.94,7,54.19,54.19,0,0,1,8.19-21.84h0a58.11,58.11,0,0,1,104.09,9.55A51.72,51.72,0,0,1,645,264.54,93.3,93.3,0,0,1,658.18,258h0A58.14,58.14,0,1,1,693.5,368.52l-3.79,13.58a70.78,70.78,0,1,0-36.6-135.65,70.76,70.76,0,0,0-131.33,0,70.78,70.78,0,1,0-36,135.73Z"/><line class="cls-2" x1="546.44" y1="1000.25" x2="546.44" y2="1329.95"/><polyline class="cls-2" points="1111.37 444.06 1111.37 248.95 1266.2 248.95 1265.99 444.06"/></g></g></svg>