<svg xmlns="http://www.w3.org/2000/svg" viewBox="0 0 2000 2000"><defs><style>.cls-1,.cls-2,.cls-3{fill:none;}.cls-2,.cls-3{stroke:#000;stroke-miterlimit:10;stroke-width:20px;}.cls-3{stroke-linecap:round;}.cls-4{fill:#cecece;}</style></defs><g id="Layer_2" data-name="Layer 2"><g id="Layer_1-2" data-name="Layer 1"><rect class="cls-1" width="2000" height="2000"/><rect class="cls-2" x="357.2" y="418.95" width="1285" height="778" rx="44.3"/><line class="cls-3" x1="466.2" y1="501.95" x2="466.2" y2="1122.95"/><line class="cls-3" x1="555.2" y1="501.95" x2="555.2" y2="1122.95"/><line class="cls-3" x1="644.2" y1="501.95" x2="644.2" y2="1122.95"/><line class="cls-3" x1="733.2" y1="501.95" x2="733.2" y2="1122.95"/><line class="cls-3" x1="822.2" y1="501.95" x2="822.2" y2="1122.95"/><line class="cls-3" x1="911.2" y1="501.95" x2="911.2" y2="1122.95"/><line class="cls-3" x1="1000.2" y1="501.95" x2="1000.2" y2="1122.95"/><line class="cls-3" x1="1089.2" y1="501.95" x2="1089.2" y2="1122.95"/><line class="cls-3" x1="1178.2" y1="501.95" x2="1178.2" y2="1122.95"/><line class="cls-3" x1="1267.2" y1="501.95" x2="1267.2" y2="1122.95"/><line class="cls-3" x1="1356.2" y1="501.95" x2="1356.2" y2="1122.95"/><line class="cls-3" x1="1445.2" y1="501.95" x2="1445.2" y2="1122.95"/><line class="cls-3" x1="1534.2" y1="501.95" x2="1534.2" y2="1122.95"/><line class="cls-3" x1="247.81" y1="1328.95" x2="247.81" y2="1102.1"/><rect class="cls-3" x="223.2" y="1033.95" width="48" height="68" rx="2.86"/><line class="cls-3" x1="248.2" y1="1143.04" x2="357.2" y2="1143.04"/><line class="cls-3" x1="1759.6" y1="1328.95" x2="1759.6" y2="1102.1"/><path class="cls-3" d="M1727.2,1102h65c8.66,0,4-7,4-15.67v-70.65c0-8.66-7-15.68-15.67-34.68h-40.65c-8.66,19-15.68,26-15.68,34.68v70.65C1724.2,1094.93,1718.55,1102,1727.2,1102Z"/><line class="cls-3" x1="1759.2" y1="1143.04" x2="1650.2" y2="1143.04"/><path class="cls-4" d="M743.59,306.18c-.92,0-1.84,0-2.77-.09-20.76-1.4-33.83-18.27-34.37-19l8.81-6.71-4.41,3.36,4.4-3.37c.11.14,10.7,13.66,26.41,14.67,10.61.68,21.45-4.44,32.23-15.22l7.83,7.83C769.42,300,756.61,306.18,743.59,306.18Z"/><path class="cls-4" d="M778,290.93l-7.83-7.83c13.17-13.17,26.93-19.37,40.9-18.43,20.76,1.41,33.83,18.28,34.37,19l-8.81,6.7,4.41-3.35-4.4,3.36c-.1-.13-10.7-13.65-26.41-14.66C799.65,275,788.81,280.15,778,290.93Z"/><path class="cls-4" d="M870.5,306.18c-.92,0-1.85,0-2.77-.09-20.77-1.4-33.83-18.27-34.37-19l8.81-6.71-4.41,3.36,4.4-3.37c.1.14,10.7,13.66,26.41,14.67,10.61.68,21.45-4.44,32.23-15.22l7.83,7.83C896.33,300,883.51,306.18,870.5,306.18Z"/><path class="cls-4" d="M904.94,290.93l-7.83-7.83c13.17-13.17,26.93-19.37,40.9-18.43,20.76,1.41,33.82,18.28,34.37,19l-8.81,6.7L968,287l-4.39,3.36c-.11-.13-10.7-13.65-26.41-14.66C926.56,275,915.72,280.15,904.94,290.93Z"/><path class="cls-4" d="M997.41,306.18c-.93,0-1.85,0-2.77-.09-20.77-1.4-33.83-18.27-34.38-19l8.82-6.71-4.41,3.36,4.4-3.37c.1.14,10.69,13.66,26.41,14.67,10.61.68,21.45-4.44,32.23-15.22l7.83,7.83C1023.24,300,1010.42,306.18,997.41,306.18Z"/><path class="cls-4" d="M1031.84,290.93,1024,283.1c13.18-13.17,26.93-19.37,40.9-18.43,20.77,1.41,33.83,18.28,34.38,19l-8.81,6.7,4.4-3.35-4.39,3.36c-.11-.13-10.7-13.65-26.41-14.66C1053.47,275,1042.62,280.15,1031.84,290.93Z"/><path class="cls-4" d="M1124.31,306.18c-.92,0-1.84,0-2.77-.09-20.76-1.4-33.82-18.27-34.37-19l8.81-6.71-4.4,3.36,4.39-3.37c.11.14,10.7,13.66,26.41,14.67,10.61.68,21.46-4.44,32.24-15.22l7.82,7.83C1150.14,300,1137.33,306.18,1124.31,306.18Z"/><path class="cls-4" d="M1252.07,306.18c-.92,0-1.84,0-2.77-.09-20.76-1.4-33.82-18.27-34.37-19l8.81-6.71-4.4,3.36,4.39-3.37c.11.14,10.7,13.66,26.41,14.67,10.61.68,21.45-4.44,32.23-15.22l7.83,7.83C1277.9,300,1265.09,306.18,1252.07,306.18Z"/><path class="cls-4" d="M1158.75,290.93l-7.83-7.83c13.17-13.17,26.93-19.37,40.9-18.43,20.77,1.41,33.83,18.28,34.38,19l-8.82,6.7,4.41-3.35-4.4,3.36c-.1-.13-10.7-13.65-26.41-14.66C1180.37,275,1169.53,280.15,1158.75,290.93Z"/></g></g></svg>