<svg xmlns="http://www.w3.org/2000/svg" viewBox="0 0 2000 2000"><defs><style>.cls-1,.cls-2,.cls-3,.cls-4,.cls-5{fill:none;}.cls-2,.cls-4,.cls-5{stroke:#000;}.cls-2,.cls-3,.cls-4{stroke-miterlimit:10;}.cls-2,.cls-5{stroke-width:14px;}.cls-3{stroke:#cecece;stroke-width:10px;}.cls-4{stroke-width:20px;}.cls-5{stroke-linejoin:round;}</style></defs><g id="Layer_2" data-name="Layer 2"><g id="Layer_1-2" data-name="Layer 1"><rect class="cls-1" width="2000" height="2000"/><rect class="cls-2" x="435.11" y="906.08" width="242.89" height="333.16" rx="36.44"/><line class="cls-2" x1="483.52" y1="1239.24" x2="483.52" y2="1282.43"/><line class="cls-2" x1="519.77" y1="1239.24" x2="519.77" y2="1282.43"/><line class="cls-2" x1="556.01" y1="1239.24" x2="556.01" y2="1282.43"/><line class="cls-2" x1="592.26" y1="1239.24" x2="592.26" y2="1282.43"/><line class="cls-2" x1="628.5" y1="1239.24" x2="628.5" y2="1282.43"/><line class="cls-2" x1="518.65" y1="1195.41" x2="646.62" y2="1195.41"/><circle class="cls-2" cx="483.14" cy="1195.41" r="15.37"/><path class="cls-3" d="M1186,1183h170.21s-.71-163.62-174.77-163.62"/><path class="cls-3" d="M468,506V335.79s163.62.71,163.62,174.77"/><rect class="cls-4" x="1182" y="174" width="468" height="1169"/><rect class="cls-4" x="351" y="174" width="831" height="338"/><rect class="cls-4" x="351" y="512" width="831" height="831"/><polyline class="cls-5" points="549.81 855 549.81 343 1116 343"/><polyline class="cls-5" points="1028.45 430.77 1116.12 343.11 1028.27 255.27"/><polyline class="cls-5" points="1504.12 342.93 1416.45 255.27 1328.61 343.11"/><polyline class="cls-5" points="739.45 1101.19 1416 1101.19 1416 255"/></g></g></svg>