<svg xmlns="http://www.w3.org/2000/svg" viewBox="0 0 2000 2000"><defs><style>.cls-1,.cls-2,.cls-3,.cls-4,.cls-5,.cls-6{fill:none;}.cls-1{stroke:#000;}.cls-1,.cls-3{stroke-linejoin:round;}.cls-1,.cls-3,.cls-4{stroke-width:20px;}.cls-3,.cls-4,.cls-5,.cls-6{stroke:#cecece;}.cls-4,.cls-5,.cls-6{stroke-miterlimit:10;}.cls-5,.cls-6{stroke-width:10px;}.cls-6{stroke-dasharray:61.29 20.43;}</style></defs><g id="Layer_2" data-name="Layer 2"><g id="Layer_1-2" data-name="Layer 1"><polyline class="cls-1" points="161 1272 668 1272 668 919.14 896.22 919.14 896.22 1272.43 1001 1272.43"/><rect class="cls-2" width="2000" height="2000"/><polyline class="cls-1" points="999.58 211.23 529.74 211.23 211 529.97 1000.72 529.97"/><polyline class="cls-3" points="1001.4 211.23 1460.53 211.23 1772 529.97 1000.28 529.97"/><polyline class="cls-4" points="1001 1272.43 1659.61 1272.43 1659.61 540.1"/><line class="cls-5" x1="1001" y1="138.99" x2="1001" y2="168.99"/><line class="cls-6" x1="1001" y1="189.42" x2="1001" y2="1323.26"/><line class="cls-5" x1="1001" y1="1333.47" x2="1001" y2="1363.47"/><line class="cls-1" x1="330.95" y1="529.97" x2="330.95" y2="1234"/><path class="cls-5" d="M412,1318.5V855.26c0-.24,90.2-85.4,90.2-85.4"/><circle class="cls-5" cx="412.93" cy="855.57" r="191.07"/><line class="cls-5" x1="412" y1="945" x2="360.27" y2="893.28"/><polyline class="cls-1" points="331.27 404.6 331.27 231.13 428.1 231.13 428 310"/></g></g></svg>