<svg xmlns="http://www.w3.org/2000/svg" viewBox="0 0 2000 2000"><defs><style>.cls-1,.cls-2,.cls-3,.cls-4{fill:none;}.cls-2{stroke:#000;stroke-width:20px;}.cls-2,.cls-3,.cls-4{stroke-miterlimit:10;}.cls-3,.cls-4{stroke:#cecece;stroke-width:10px;}.cls-4{stroke-dasharray:38.48 38.48;}</style></defs><g id="Layer_2" data-name="Layer 2"><g id="Layer_1-2" data-name="Layer 1"><rect class="cls-1" width="2000" height="2000"/><rect class="cls-2" x="427.23" y="204" width="1159.5" height="1052"/><line class="cls-2" x1="1010" y1="110" x2="1010" y2="348"/><ellipse class="cls-2" cx="1009.5" cy="450.9" rx="471.5" ry="56.1"/><line class="cls-3" x1="684" y1="448" x2="684" y2="468"/><line class="cls-4" x1="684" y1="506.48" x2="684" y2="1333.76"/><line class="cls-3" x1="684" y1="1353" x2="684" y2="1373"/><line class="cls-3" x1="776.67" y1="448" x2="776.67" y2="468"/><line class="cls-4" x1="776.67" y1="506.48" x2="776.67" y2="1333.76"/><line class="cls-3" x1="776.67" y1="1353" x2="776.67" y2="1373"/><line class="cls-3" x1="869.33" y1="448" x2="869.33" y2="468"/><line class="cls-4" x1="869.33" y1="506.48" x2="869.33" y2="1333.76"/><line class="cls-3" x1="869.33" y1="1353" x2="869.33" y2="1373"/><line class="cls-3" x1="962" y1="448" x2="962" y2="468"/><line class="cls-4" x1="962" y1="506.48" x2="962" y2="1333.76"/><line class="cls-3" x1="962" y1="1353" x2="962" y2="1373"/><line class="cls-3" x1="1051" y1="448" x2="1051" y2="468"/><line class="cls-4" x1="1051" y1="506.48" x2="1051" y2="1333.76"/><line class="cls-3" x1="1051" y1="1353" x2="1051" y2="1373"/><line class="cls-3" x1="1143.67" y1="448" x2="1143.67" y2="468"/><line class="cls-4" x1="1143.67" y1="506.48" x2="1143.67" y2="1333.76"/><line class="cls-3" x1="1143.67" y1="1353" x2="1143.67" y2="1373"/><line class="cls-3" x1="1236.33" y1="448" x2="1236.33" y2="468"/><line class="cls-4" x1="1236.33" y1="506.48" x2="1236.33" y2="1333.76"/><line class="cls-3" x1="1236.33" y1="1353" x2="1236.33" y2="1373"/><line class="cls-3" x1="1329" y1="448" x2="1329" y2="468"/><line class="cls-4" x1="1329" y1="506.48" x2="1329" y2="1333.76"/><line class="cls-3" x1="1329" y1="1353" x2="1329" y2="1373"/><path class="cls-2" d="M538,450.9V395s62-47.18,472-47.18c0,0,424.5.68,471,47.18v55.9"/><path d="M778.24,1025.69v-22.23q0-42.69,14.67-67.14,8.9-14.24,24.68-26t44.68-27.79q50.25-27.56,67.37-43.57t17.12-44.47q0-22.22-17.12-41.13t-50.91-18.89q-32.47,0-52.25,20t-21.12,56l-28.46-2.67q1.77-46.68,30-73.36t71.81-26.68q46.23,0,71.58,26.23t25.35,61.36a93.37,93.37,0,0,1-2.45,21.79,133.41,133.41,0,0,1-5.33,17.56q-2.89,7.35-10,15.35t-11.11,12.22q-4,4.23-14.23,11.12t-14,9.11q-3.78,2.24-16.23,9.12t-15.12,8.23q-4.44,2.65-14,7.78t-13.12,7.11q-3.57,2-10.45,6.23t-10.22,6.67q-3.35,2.45-8,6.22a51.71,51.71,0,0,0-7.56,7.34q-2.89,3.56-5.56,7.56-10.66,16.9-10.67,48.46H976.1v28.46Z"/><path d="M1120.16,967.89V866.51h-88.48V842.05h88.48V752.23h26.68v89.82h88.49v24.46h-88.49V967.89Z"/></g></g></svg>