<svg xmlns="http://www.w3.org/2000/svg" viewBox="0 0 2000 2000"><defs><style>.cls-1,.cls-2,.cls-3,.cls-4,.cls-5,.cls-7{fill:none;}.cls-2,.cls-3,.cls-5,.cls-7{stroke:#000;}.cls-2,.cls-3{stroke-linejoin:round;}.cls-2,.cls-3,.cls-5{stroke-width:20px;}.cls-3{stroke-linecap:round;}.cls-4{stroke:#cecece;}.cls-4,.cls-5,.cls-7{stroke-miterlimit:10;}.cls-4,.cls-7{stroke-width:10px;}.cls-6{fill:#cecece;}</style></defs><g id="Layer_2" data-name="Layer 2"><g id="Layer_1-2" data-name="Layer 1"><rect class="cls-1" width="2000" height="2000"/><polyline class="cls-2" points="1225.98 417.18 725.21 417.18 385.49 756.9 1227.2 756.9"/><line class="cls-2" x1="513.34" y1="746.58" x2="513.34" y2="1241.28"/><polyline class="cls-2" points="513.68 622.52 513.68 437.63 616.88 437.63 616.77 521.69"/><line class="cls-3" x1="384.42" y1="1274.39" x2="931.81" y2="1274.39"/><polyline class="cls-2" points="908.76 1247.31 908.76 897.84 1134.72 897.84 1134.72 1274.13 1475.38 1274.13"/><path class="cls-4" d="M1378,1329.47v-553c0-.29-107.68-102-107.68-102"/><circle class="cls-4" cx="1376.91" cy="776.87" r="228.09"/><line class="cls-4" x1="1378.03" y1="883.62" x2="1439.77" y2="821.88"/><polygon class="cls-5" points="875.58 657.64 827.63 609.7 771.56 609.7 723.94 657.31 875.58 657.64"/><rect class="cls-5" x="741.3" y="528.23" width="117.7" height="45.83" transform="translate(1351.3 -249.01) rotate(90)"/><line class="cls-4" x1="723.82" y1="274.26" x2="775.11" y2="439.11"/><line class="cls-4" x1="801.89" y1="261.66" x2="801.89" y2="428.72"/><line class="cls-4" x1="828.18" y1="438.2" x2="879.46" y2="273.35"/><path class="cls-6" d="M702.37,331.53a58.13,58.13,0,0,1,21-114.2v0s1.36.14,3.62.6a57.81,57.81,0,0,1,8.42,2.32h0l.88.31a64.81,64.81,0,0,1,13.94,7,54.37,54.37,0,0,1,8.2-21.84h0a58.11,58.11,0,0,1,104.09,9.56,52,52,0,0,1,3.15,12.26,91.64,91.64,0,0,1,13.2-6.51h0A58.14,58.14,0,1,1,914.2,331.47l-3.79,13.58a70.78,70.78,0,1,0-36.6-135.65,70.76,70.76,0,0,0-131.33,0,70.78,70.78,0,1,0-36,135.73Z"/><line class="cls-7" x1="799.76" y1="497.71" x2="799.76" y2="465.4"/><line class="cls-7" x1="768.27" y1="464.58" x2="831.62" y2="464.58"/></g></g></svg>