<svg xmlns="http://www.w3.org/2000/svg" viewBox="0 0 2000 2000"><defs><style>.cls-1,.cls-2,.cls-3,.cls-4,.cls-5,.cls-6{fill:none;}.cls-2,.cls-4,.cls-5,.cls-6{stroke:#000;}.cls-2,.cls-3,.cls-5,.cls-6{stroke-miterlimit:10;}.cls-2{stroke-width:20px;}.cls-3{stroke:#cecece;stroke-width:10px;}.cls-4{stroke-linejoin:round;}.cls-4,.cls-5,.cls-6{stroke-width:14px;}.cls-6{stroke-dasharray:59.33 19.78;}</style></defs><g id="Layer_2" data-name="Layer 2"><g id="Layer_1-2" data-name="Layer 1"><rect class="cls-1" width="2000" height="2000"/><rect class="cls-2" x="818.75" y="175.3" width="387.05" height="530.89" rx="36.44"/><line class="cls-2" x1="951.88" y1="636.35" x2="1155.8" y2="636.35"/><circle class="cls-2" cx="895.28" cy="636.35" r="24.5"/><line class="cls-3" x1="274.7" y1="851.95" x2="1731.92" y2="851.95"/><line class="cls-3" x1="278.2" y1="851.95" x2="278.2" y2="1351.95"/><line class="cls-3" x1="762.54" y1="851.95" x2="762.54" y2="1351.95"/><line class="cls-3" x1="1246.87" y1="851.95" x2="1246.87" y2="1351.95"/><line class="cls-3" x1="1731.2" y1="851.95" x2="1731.2" y2="1351.95"/><line class="cls-3" x1="769.2" y1="669.64" x2="275.2" y2="669.64"/><line class="cls-3" x1="1737.2" y1="669.64" x2="1243.2" y2="669.95"/><line class="cls-3" x1="1733.05" y1="669.64" x2="1733.05" y2="169.64"/><line class="cls-3" x1="1248.71" y1="669.64" x2="1248.71" y2="169.64"/><line class="cls-3" x1="764.38" y1="669.64" x2="764.38" y2="169.64"/><line class="cls-3" x1="280.05" y1="669.64" x2="280.05" y2="169.64"/><line class="cls-3" x1="349.07" y1="611.28" x2="695.09" y2="611.28"/><line class="cls-3" x1="349.07" y1="912.28" x2="695.09" y2="912.28"/><line class="cls-3" x1="1317.07" y1="611.28" x2="1663.09" y2="611.28"/><line class="cls-3" x1="1317.07" y1="912.28" x2="1663.09" y2="912.28"/><line class="cls-3" x1="842.07" y1="912.28" x2="1188.09" y2="912.28"/><polyline class="cls-4" points="1090.49 846.63 1011.82 767.95 932.98 846.79"/><polyline class="cls-4" points="932.98 1252.43 1011.66 1331.1 1090.49 1252.27"/><path class="cls-5" d="M1012.09,776.23s-.06,11-.09,30"/><path class="cls-6" d="M1012,826c-.11,108.74-.16,365.71-.17,464.75"/><path class="cls-5" d="M1011.81,1300.64c0,19,0,30,0,30"/></g></g></svg>