<svg xmlns="http://www.w3.org/2000/svg" viewBox="0 0 168.26 165.28"><defs><style>.cls-1{fill:#1b6d42;fill-rule:evenodd;}</style></defs><g id="Layer_2" data-name="Layer 2"><g id="Layer_1-2" data-name="Layer 1"><g id="Layer_2-2" data-name="Layer 2"><g id="Layer_1-2-2" data-name="Layer 1-2"><path class="cls-1" d="M68.85,97c1.11-.07,3.34-.87,3.66-2.15a1.42,1.42,0,0,0-.94-1.78,1.59,1.59,0,0,0-.48-.07C68.69,92.82,65.9,97.32,68.85,97Z"/><path class="cls-1" d="M161.12,136.54c-2.6.16-5.2,0-7.8.23-.73.06-5.47,1.13-5.78.51s2.41-5.13,2.88-6.28a34,34,0,0,0,2.15-6.75,65.81,65.81,0,0,0,1-11.73,46.89,46.89,0,0,0-2-13.3c-.24-.85-1-5.63-2.94-4.41-1.24.79-.06,4.9.06,5.88.29,2.3.84,4.55,1,6.86a12.42,12.42,0,0,1,.09,3.75c-.34,1,.09.88-1.14.78-1.69-.13-3.81-1.93-5.4-2.5a39,39,0,0,0-6.13-1.53,76.67,76.67,0,0,0-13.7-1.11c-2.41,0-5.07.92-7.4.78a17.23,17.23,0,0,0-4.81.14c.62-3.38,3.12-6.42,3.49-9.85.49-4.66-3.38-1.51-4.67.34a20.39,20.39,0,0,0-3.82,8.76c-.19,1.31.36,2.63.1,3.84s-1.58,2.75-2.16,3.94a59.5,59.5,0,0,0-3.14,8.64c-.42,1.44-.29,2.3-1.91,1.56-1-.45-1.64-1.57-2.46-2.27a82.53,82.53,0,0,0-12.77-9.19A36.72,36.72,0,0,0,69,109.05c-2-.21-6.25-.3-7.47-1.89-1.36-1.78-1.66-5.64-2.34-7.82a2.58,2.58,0,0,1-.1-.33h0l.23.19c1.44,1.19,2.6,2.59,4.15,3.65A18.13,18.13,0,0,0,70,105.32c4.24.91,10,.68,14.08-1.1,3.73-1.66,6.1-4.64,8.17-8.1,1-1.63.69-3.72,2.93-4.19,1.89-.4,4.44,1.27,6.57,1.3a11.69,11.69,0,0,0,6.4-2.18c1.15-.87,1.62-3.42,2.63-3.9.59-.28,1.74.46,2.35.6a6.54,6.54,0,0,0,3.17,0,13.73,13.73,0,0,0,4.68-2.3c1.17-1,1.36-4.13,2.45-4.78.81-.48,2.65.54,3.77.44a8.7,8.7,0,0,0,7.52-5.77c.31-.74.68-4.1,1.38-4.41.39-.18,3.25,1,3.81,1.14a43.47,43.47,0,0,1,11,4.69c3.68,2.31,8.19,3.38,12.17,5.13.62.27,1.23.56,1.85.85a78,78,0,0,0-4.56-7.11,51.31,51.31,0,0,0-5.58-5.84l-.21-.13c-.35.21-.73.07-1.85-.32a16.43,16.43,0,0,1-2.37-.78,12.1,12.1,0,0,0-3-1.35,55,55,0,0,0-9.74-1.43c.69-2.87,2.23-5.13,2.49-8.17a11.86,11.86,0,0,0-1.37-7.08,6.32,6.32,0,0,0-2.18-2.12c-1.35-.95-1,.08-.67-1.53.48-2.57,1.17-4.47,1-7.17a11.75,11.75,0,0,0-2.7-7c-.56-.55-1.93-.86-2.29-1.39s0-2.53,0-3.22c-.08-2.53-.59-5.29-2.42-7.16a7.29,7.29,0,0,0-3.33-1.88c-1-.29-2.43,0-3.33-.28C121.4,18.45,120.28,16,119,15a8.2,8.2,0,0,0-2.64-1.56c-.73-.19-1.5,0-2.22-.19-1.82-.59-2.73-2.73-4.19-3.85a30.16,30.16,0,0,0-3.76-2.68,11.32,11.32,0,0,0-5.3-.89,21.45,21.45,0,0,0-3,0c-.57.09-2,.75-2.39.57-.81-.32-1.1-2-1.82-2.6a13.29,13.29,0,0,0-2-.9A8.45,8.45,0,0,0,85.42,2c-1.25.25-1.18.51-2.52,0-.84-.34-1.67-.69-2.53-1A14.26,14.26,0,0,0,73.62.08,12.67,12.67,0,0,0,70,1c-.92.39-1.86,1.32-2.75,1.58C66,3,64.67,2.3,63.31,2.22c-7.56-.48-17,1.53-22.35,7.2a15.2,15.2,0,0,0-3.39,5.89c-.32,1-.38,1.76-1.2,2.31-.66.44-1.88.46-2.62.84C30,20.38,27.14,24.29,25.32,28a18.16,18.16,0,0,0-2,7.2c-.13,2.09.65,4.69.08,6.57-.72,2.38-1.8,3.6-1.85,6.3a22,22,0,0,0,1.14,7.15c.47,1.4,1.29,2.61,1.8,4,.44,1.17.26,1.34,0,2.58a10.39,10.39,0,0,0,.47,6.78,16.57,16.57,0,0,0,4.34,5.68c.69.58,1.64,1,2,1.8s-.1,2.82,0,3.79A11.3,11.3,0,0,0,39.15,89a24.23,24.23,0,0,0,6.17,1.35c1.62.06,3.87-1.52,4.59.36-4.07,1.29-8.33,1.94-12.4,3.35-2.67.91-2.51,2.23-1.92,4.76.65,2.73,1.47,5.43,2.23,8.13.16.56,1.27,3.21,1,3.67s-1.41.83-2,1.22a12.13,12.13,0,0,0-4.12,4c-.94,1.78-.31,4-.9,5.79s-2.4,1.46-3.72,2.5-2.07,3.27.28,3.5,5.16-.8,7.48-1.14c5.42-.8,9.93.92,14.91,2.84a18,18,0,0,1,5.46,3.14c1.08.92,3.73,4.3,5.23,3.86,3.11-.91-4-8.07-5-9.29a22,22,0,0,0-6.28-3.15c-.9-.26-2-.11-2.51-1-.4-.63-.28-3.06-.36-3.88a6.62,6.62,0,0,0-.78-3.4c-.34-.55-.9-.78-1.19-1.38-.47-1-.24-2.22-1-3.09-.92-1-2.27-.29-3.1-.8-1.38-.84-1.53-5.39-1.89-7.15a27.13,27.13,0,0,1-.66-3c-.1-1.5-.47-.88.88-1.55a49.2,49.2,0,0,1,7.66-2.47c2.51-.74,5-1.64,7.47-2.43,1.08,4,2.33,8,3.41,12,.5,1.87,1.14,3-.11,4.42-.83,1-2.15,1.68-2.58,3s.11,2.11.2,3.29a8.81,8.81,0,0,1-.43,2.45,4.11,4.11,0,0,0,.1,1.71c-.46.11-.77.71-.81,1.67-.06,1.19,1.12,4,2.2,4.7a2.3,2.3,0,0,0,2.39.76c1.5-.19,2.73-2.45,4.12-2.5.92,0,3.36,1.41,4.16,2,2.54,2,4.24,5.45,6.19,8,2.38,3.06,4.71,6.27,7.19,9.25A64.62,64.62,0,0,0,89,152.16c-3.72-.38-4.09,2.57-5.08,5.16-.53,1.38-.81,1.77-2.41.94a13.12,13.12,0,0,1-3.22-3c-1.26-1.37-4.11-6-4.66-1.85-.13.94.17,1.38-.54,1.93a8.21,8.21,0,0,1-2,.59,20.51,20.51,0,0,1-3.45.87,30.76,30.76,0,0,1-9.17.81,46.51,46.51,0,0,1-9.65-2.33A115.47,115.47,0,0,1,34,149.63c-4.85-2.38-9.94-4.51-14.47-7.51-2.1-1.39-4.88-2.66-6.55-4.52s-2.17-2.78-4.46-3.73c-1.56-.65-6.3-2.57-5.14-4.7,1.29-2.37,5.85-1.31,7.76-.85,1.62.4,1.36.53,2.44-.6.24-.26.18-.83.23-.9a14.06,14.06,0,0,1,1.44-1.22c1.85-1.38,3.43-3.17,5.25-4.62a72.74,72.74,0,0,1,7-5.35c2.24-1.36,4.9-1.91,7.11-3.25,1.55-.94,2.75-3.62.29-4.44-1.88-.62-5.36.58-7.14,1.27-2.64,1-5.09,1.87-7.31,3.74a40.25,40.25,0,0,0-5.67,6,16.81,16.81,0,0,0-2.39,4c-.23.6-.06,1.7-.92,1.84-.57.09-2.79-1.26-3.39-1.38a8.3,8.3,0,0,0-4.39.29c-5.48,1.91-4.16,9.12-.58,12.21a11.92,11.92,0,0,0,7.53,2.89c.95.07,1.7-.06,2.21.68.17.26.15,1.32.41,1.77a6.66,6.66,0,0,0,1.35,1.25C22.37,149.61,31,155.46,40.91,159c5.06,1.82,10,3.74,15.41,4.44a32.2,32.2,0,0,0,15.31-1.88c1-.36,3-2,4.14-1.61.84.28,1.45,2,2.14,2.6,1.23,1.14,4.37,3.09,6.13,2.68a4.16,4.16,0,0,0,2.66-2.56c.57-1.25.25-3,.79-4.09.83-1.71,3.6-2.56,3.32-5.11,2.39,1,4.39,2.59,6.81,3.55,1.77.71,3.6,1.25,5.34,1.85,3.59,1.23,8.1,2.33,11.92.91a21.66,21.66,0,0,0,5.36-2.83,14.31,14.31,0,0,1,5.78-2.51c5.39-1.44,9.46-2.76,13.57-6.67a19.12,19.12,0,0,0,2.82-3.14c.37-.54.81-1.82,1.41-2.12s1.62.25,2.3.41a15.58,15.58,0,0,0,3.67.2c4,0,8.2.29,12.32.24,1.52,0,3-.13,4.52-.28.62-2.28,1.16-4.59,1.63-6.9C165.9,136.37,163.5,136.4,161.12,136.54ZM42.57,114c.49.94-2.73,2.12-2.1,3.49s3.87-1.46,4.26-.18-2.76,1.89-2.07,3.36c.34.73,3,.12,2.12,1.48-.74,1.13-5,0-6.13-.1-1.88-.08-3.87.94-3.87-1.46a6.17,6.17,0,0,1,2.57-5C37.89,115.25,42.15,113.23,42.57,114ZM56.29,90.48c-.57-.73-1.37-.55-1.82-1-.64-.69-.52-2.44-.64-3.25A39.39,39.39,0,0,1,53,77.34c0-.46,0-2.82.5-3.1s2.68.52,3.38.58C61,75.17,65.24,76,69.37,76c.32.55,1.19.41,1.92-.07A11,11,0,0,0,73,75.73a51.84,51.84,0,0,0,13.6-4.21,2,2,0,0,0,.73,1.24c.86-1.26,1.07-2.09,2.91-2.37A5.52,5.52,0,0,1,94,71.3c3.77,2.84-.53,5.63-3,6.9,3.06,3.37,4,10.5.51,13.94a49.82,49.82,0,0,0-4.11,4C86.11,97.72,85,98.9,83,99.47A32.68,32.68,0,0,1,76.16,101c-2,.11-4.27-.55-6.25-.83a25.9,25.9,0,0,1-7.12-1.92c-1.52-.68-3.55-2-3.77.58h0v-.06C58.3,96.29,57.82,92.46,56.29,90.48Zm89.56,41.57c-3.15,6.79-7.58,13.72-14.57,16.9a35,35,0,0,1-7.42,2.75,12,12,0,0,0-3.66,1,22.39,22.39,0,0,1-9.25,2.12c-3.66-.08-7.73-1.85-11-3.38a53.76,53.76,0,0,1-9.16-5.05,42.62,42.62,0,0,1-9-8.84c-2.18-2.81-4.27-6-6.8-8.49-1.19-1.17-2.53-2.57-3.82-3.62-1.44-1.17-2.53-.66-4.33-.89a7.16,7.16,0,0,1-2.39-.66c-.53-.27-1.23-1.14-1.81-1.19-1.41-.13-2.87,1.13-4.36,1.13a11.13,11.13,0,0,1,2.92-2.28c.62-.32,2.37-.81,2.22-1.77-.3-1.8-4.5-.63-5.71-.54.57-2,5.22-2.18,5.1-3.44-.16-1.68-3.94-1.1-4.93-1,1.94-4,9.24-1.52,12.42-.94,4.79.86,9.8,3.22,14,5.66a52.88,52.88,0,0,1,11.24,8.3c1.57,1.62,2.73,3.21,5.21,3.18,2.21,0,3.61-1.29,4.55-3.2,1.8-3.66,3.25-7.49,5.09-11.14.57-1.13,1.56-4,2.78-4.47.61-.25,2.18.11,2.86.11,1.11,0,2.23-.12,3.34-.17,7.06-.3,14.86.13,21.7,2.1a63.17,63.17,0,0,1,7,2.21c2.22,1,1.86,1.48,1.45,3.76A45.9,45.9,0,0,1,145.85,132.05Z"/><path class="cls-1" d="M44,143.07c0-2.34-2.83-6.1-3.85-2.3.14,1.16.62,4.21,2.22,4.48C43.66,145.46,44,144.09,44,143.07Z"/><path class="cls-1" d="M61.56,92.61c1.54.79,3.47-.7,3.89-2-.37-.6-.39-.76-1-1s-1.54.12-2-.06-.54-.71-.65-1.45c-.15-1.11-.9-4.79-1.8-2C59.46,87.75,59.64,91.63,61.56,92.61Z"/><path class="cls-1" d="M64.27,85.27c1.78,1.15,2.18.39,2-1.39a7.18,7.18,0,0,0-2-4.83c-1.36-1.15-2.44-.8-2.44,1C61.94,81.6,62.72,84.27,64.27,85.27Z"/><polygon class="cls-1" points="59.02 138.96 59.04 138.97 59.02 138.91 59.02 138.96"/></g></g></g></g></svg>