<svg xmlns="http://www.w3.org/2000/svg" viewBox="0 0 2000 2000"><defs><style>.cls-1,.cls-2,.cls-3,.cls-4,.cls-5{fill:none;}.cls-2,.cls-3,.cls-4{stroke:#000;stroke-width:20px;}.cls-2,.cls-4,.cls-5{stroke-miterlimit:10;}.cls-3,.cls-4{stroke-linecap:round;}.cls-3{stroke-linejoin:round;}.cls-5{stroke:#cecece;stroke-width:10px;}</style></defs><g id="Layer_2" data-name="Layer 2"><g id="Layer_1-2" data-name="Layer 1"><rect class="cls-1" width="2000" height="2000"/><circle class="cls-2" cx="556.32" cy="509.39" r="101.15"/><path class="cls-2" d="M289,771v238.06s-13.4,235,260.8,235h458.09"/><path class="cls-3" d="M999.89,1244H1458c274.2,0,260.81-235,260.81-235V815H352.06"/><line class="cls-4" x1="231.55" y1="745" x2="1773.15" y2="745"/><circle class="cls-2" cx="648" cy="1271" r="27"/><circle class="cls-2" cx="1359" cy="1271" r="27"/><path class="cls-3" d="M370,745s-4-87.5,87.5-87.5h211L824.62,745Z"/><path class="cls-5" d="M976.15,154.41c0,84.51-82,84.51-82,169s82,84.52,82,169-82,84.51-82,169"/><path class="cls-5" d="M1109.15,154.41c0,84.51-82,84.51-82,169s82,84.52,82,169-82,84.51-82,169"/><path class="cls-5" d="M1243.15,154.41c0,84.51-82,84.51-82,169s82,84.52,82,169-82,84.51-82,169"/><path class="cls-5" d="M1373.15,154.41c0,84.51-82,84.51-82,169s82,84.52,82,169-82,84.51-82,169"/><path class="cls-5" d="M1506.15,154.41c0,84.51-82,84.51-82,169s82,84.52,82,169-82,84.51-82,169"/><path class="cls-5" d="M1640.15,154.41c0,84.51-82,84.51-82,169s82,84.52,82,169-82,84.51-82,169"/><path d="M1254.73,534.29V305.13l-55.54,34.95V313.59l59.22-36.78h18.39V534.29Z"/></g></g></svg>