<svg xmlns="http://www.w3.org/2000/svg" viewBox="0 0 2000 2000"><defs><style>.cls-1,.cls-2,.cls-3,.cls-4,.cls-5{fill:none;}.cls-2,.cls-3,.cls-4{stroke:#000;stroke-width:20px;}.cls-2,.cls-4,.cls-5{stroke-miterlimit:10;}.cls-3,.cls-4{stroke-linecap:round;}.cls-3{stroke-linejoin:round;}.cls-5{stroke:#cecece;stroke-width:10px;}</style></defs><g id="Layer_2" data-name="Layer 2"><g id="Layer_1-2" data-name="Layer 1"><rect class="cls-1" width="2000" height="2000"/><circle class="cls-2" cx="555.32" cy="509.39" r="101.15"/><path class="cls-2" d="M288,771v238.06s-13.4,235,260.8,235h458.09"/><path class="cls-3" d="M998.89,1244H1457c274.2,0,260.81-235,260.81-235V815H351.06"/><line class="cls-4" x1="230.55" y1="745" x2="1772.15" y2="745"/><circle class="cls-2" cx="647" cy="1271" r="27"/><circle class="cls-2" cx="1358" cy="1271" r="27"/><path class="cls-3" d="M369,745s-4-87.5,87.5-87.5h211L823.62,745Z"/><path class="cls-5" d="M975.15,154.41c0,84.51-82,84.51-82,169s82,84.52,82,169-82,84.51-82,169"/><path class="cls-5" d="M1108.15,154.41c0,84.51-82,84.51-82,169s82,84.52,82,169-82,84.51-82,169"/><path class="cls-5" d="M1242.15,154.41c0,84.51-82,84.51-82,169s82,84.52,82,169-82,84.51-82,169"/><path class="cls-5" d="M1372.15,154.41c0,84.51-82,84.51-82,169s82,84.52,82,169-82,84.51-82,169"/><path class="cls-5" d="M1505.15,154.41c0,84.51-82,84.51-82,169s82,84.52,82,169-82,84.51-82,169"/><path class="cls-5" d="M1639.15,154.41c0,84.51-82,84.51-82,169s82,84.52,82,169-82,84.51-82,169"/><path d="M1069,449.69l23.54-4.41q4.77,37.52,20.23,55t46.71,17.47q30.15,0,45.24-16t15.08-38.81q0-28.68-17.84-42.85t-47.26-14.16h-12.51V383.85h5.15q64.74,0,64.74-44.51,0-21.33-14.53-33.65t-38.44-12.33q-23.17,0-36.78,13.8t-16.55,38.44l-23.54-4.05q3.67-32,24.46-51.13t52.41-19.13q33.47,0,55.18,17.84t21.7,50.21q0,22.08-12.69,36.05t-29.61,17.66v.73a62.36,62.36,0,0,1,36,23.18q14,18,14,46,0,33.48-23.91,55.18t-60,21.7q-37.89,0-61.8-21.89T1069,449.69Z"/><path d="M1361.05,486.47V402.61h-73.2V382.38h73.2v-74.3h22.07v74.3h73.2v20.23h-73.2v83.86Z"/></g></g></svg>