<svg xmlns="http://www.w3.org/2000/svg" viewBox="0 0 2000 2000"><defs><style>.cls-1,.cls-2,.cls-3{fill:none;}.cls-2{stroke:#000;stroke-width:20px;}.cls-2,.cls-3{stroke-miterlimit:10;}.cls-3{stroke:#cecece;stroke-width:10px;}.cls-4{fill:#cecece;}</style></defs><g id="Layer_2" data-name="Layer 2"><g id="Layer_1-2" data-name="Layer 1"><rect class="cls-1" width="2000" height="2000"/><line class="cls-2" x1="361.28" y1="617" x2="361.28" y2="1307.97"/><line class="cls-2" x1="1660.94" y1="1081.21" x2="361.28" y2="1081.21"/><line class="cls-2" x1="1660.94" y1="1171.63" x2="361.28" y2="1171.63"/><path class="cls-2" d="M743.28,1059V826.62H1521.9s132.45-13,132.45,135.86v337.61"/><circle class="cls-2" cx="548.32" cy="916.39" r="101.15"/><path d="M1169.29,371.05l23.54-4.41q4.79,37.51,20.23,55t46.72,17.47q30.15,0,45.24-16t15.08-38.81q0-28.69-17.84-42.85T1255,327.28h-12.51V305.21h5.15q64.74,0,64.74-44.51,0-21.33-14.53-33.66t-38.44-12.32q-23.17,0-36.78,13.8T1206.07,267l-23.54-4q3.67-32,24.46-51.13t52.42-19.13q33.46,0,55.17,17.84t21.71,50.21q0,22.07-12.69,36.05T1294,314.4v.74a62.34,62.34,0,0,1,36,23.17q14,18,14,46,0,33.48-23.91,55.18t-59.95,21.7q-37.89,0-61.8-21.89T1169.29,371.05Z"/><line class="cls-3" x1="1558.97" y1="421.09" x2="1746" y2="467.31"/><line class="cls-3" x1="1504.17" y1="521.88" x2="1715.53" y2="648.1"/><line class="cls-3" x1="1405.23" y1="584.99" x2="1495.69" y2="697.24"/><line class="cls-3" x1="1305.12" y1="621.26" x2="1327.48" y2="749.86"/><line class="cls-3" x1="1186.58" y1="611.2" x2="1110.53" y2="793.48"/><line class="cls-3" x1="1083.69" y1="566.46" x2="1012.12" y2="641.12"/><line class="cls-3" x1="1012.12" y1="493.77" x2="859.02" y2="566.46"/><line class="cls-3" x1="976.89" y1="393.86" x2="743.11" y2="417"/><line class="cls-3" x1="979.69" y1="294.7" x2="862.24" y2="261.63"/><line class="cls-3" x1="1007.65" y1="205.41" x2="854.55" y2="102.2"/><path class="cls-4" d="M1496.11,373a240.45,240.45,0,1,1-428.36-181.54l-8-8A251.63,251.63,0,1,0,1507.39,373Z"/></g></g></svg>