<svg xmlns="http://www.w3.org/2000/svg" viewBox="0 0 2000 2000"><defs><style>.cls-1,.cls-2,.cls-3,.cls-4{fill:none;}.cls-2,.cls-4{stroke:#000;stroke-linejoin:round;stroke-width:20px;}.cls-3{stroke:#cecece;stroke-miterlimit:10;stroke-width:10px;}.cls-4{stroke-linecap:round;}.cls-5{fill:#cecece;}</style></defs><g id="Layer_2" data-name="Layer 2"><g id="Layer_1-2" data-name="Layer 1"><rect class="cls-1" width="2000" height="2000"/><polyline class="cls-2" points="999.58 499.94 529.74 499.94 211 818.68 1000.72 818.68"/><line class="cls-2" x1="330.95" y1="809" x2="330.95" y2="1273.14"/><polyline class="cls-2" points="331.27 692.6 331.27 519.13 428.1 519.13 428 598"/><polyline class="cls-2" points="999.96 499.94 1469.81 499.94 1788.54 818.68 998.82 818.68"/><line class="cls-2" x1="1668.59" y1="809.27" x2="1668.59" y2="1273.42"/><path class="cls-3" d="M287.24,1357.5V1017.91c0-.17,66.13-62.61,66.13-62.61"/><circle class="cls-3" cx="287.93" cy="1018.14" r="140.07"/><line class="cls-3" x1="287.24" y1="1083.7" x2="249.32" y2="1045.78"/><line class="cls-4" x1="210" y1="1304.21" x2="922.95" y2="1304.21"/><polyline class="cls-2" points="886.95 1278.8 886.95 950.91 1098.95 950.91 1098.95 1303.97 1788 1303.97"/><line class="cls-3" x1="1241.65" y1="408.51" x2="1098.75" y2="373.19"/><line class="cls-3" x1="1283.52" y1="331.5" x2="1122.03" y2="235.07"/><line class="cls-3" x1="1359.11" y1="283.28" x2="1290" y2="197.52"/><line class="cls-3" x1="1435.61" y1="255.57" x2="1418.52" y2="157.31"/><line class="cls-3" x1="1526.17" y1="263.26" x2="1584.27" y2="123.99"/><line class="cls-3" x1="1604.78" y1="297.44" x2="1659.46" y2="240.4"/><line class="cls-3" x1="1659.46" y1="352.98" x2="1776.44" y2="297.44"/><line class="cls-3" x1="1686.39" y1="429.31" x2="1865" y2="411.64"/><line class="cls-3" x1="1684.24" y1="505.08" x2="1773.98" y2="530.35"/><line class="cls-3" x1="1662.88" y1="573.3" x2="1779.86" y2="652.16"/><path class="cls-5" d="M1289.68,445.25A183.72,183.72,0,1,1,1617,584l6.09,6.09a192.26,192.26,0,1,0-342-144.8Z"/></g></g></svg>