<svg xmlns="http://www.w3.org/2000/svg" viewBox="0 0 2000 2000"><defs><style>.cls-1,.cls-2,.cls-3,.cls-4{fill:none;}.cls-2,.cls-4{stroke:#000;stroke-linejoin:round;stroke-width:20px;}.cls-3{stroke:#cecece;stroke-miterlimit:10;stroke-width:10px;}.cls-4{stroke-linecap:round;}</style></defs><g id="Layer_2" data-name="Layer 2"><g id="Layer_1-2" data-name="Layer 1"><rect class="cls-1" width="2000" height="2000"/><polyline class="cls-2" points="999.58 211.94 529.74 211.94 211 530.68 1000.72 530.68"/><line class="cls-2" x1="330.95" y1="529.97" x2="330.95" y2="1234"/><polyline class="cls-2" points="331.27 404.6 331.27 231.13 428.1 231.13 428 310"/><polyline class="cls-2" points="999.96 211.94 1469.81 211.94 1788.54 530.68 998.82 530.68"/><line class="cls-2" x1="1668.59" y1="530.39" x2="1668.59" y2="1234.42"/><path class="cls-3" d="M1528.87,1318.5V855.26c0-.24-90.21-85.4-90.21-85.4"/><circle class="cls-3" cx="1527.93" cy="855.57" r="191.07"/><line class="cls-3" x1="1528.87" y1="945" x2="1580.59" y2="893.28"/><path class="cls-3" d="M1376.62,1326V1112.48c0-.14-57.59-49.48-57.59-49.48"/><circle class="cls-3" cx="1376.02" cy="1089.9" r="121.98"/><line class="cls-4" x1="210" y1="1265.21" x2="922.95" y2="1265.21"/><polyline class="cls-2" points="886.95 1239.8 886.95 911.91 1098.95 911.91 1098.95 1264.97 1788 1264.97"/></g></g></svg>