<svg xmlns="http://www.w3.org/2000/svg" viewBox="0 0 250.91 139.34"><defs><style>.cls-1{fill:#1b6d42;fill-rule:evenodd;}</style></defs><g id="Layer_2" data-name="Layer 2"><g id="Layer_1-2" data-name="Layer 1"><g id="Layer_2-2" data-name="Layer 2"><g id="Layer_1-2-2" data-name="Layer 1-2"><path class="cls-1" d="M115,60.48c-.29.47-.55.67-.17,1.16l.39-.34A3,3,0,0,0,115,60.48Z"/><path class="cls-1" d="M127,54.68c-.57,1.09.69,1.43,1.41.9a3.28,3.28,0,0,0,1-2.06c.29-2.1-1.18-4.11-1.92-6-.19-.49-.45-2.14-1.06-2.19s-.75,1.48-.76,1.87a10.75,10.75,0,0,0,.65,3.51C126.69,52,127.67,53.4,127,54.68Z"/><path class="cls-1" d="M133.48,47.08c0-.47-.36-2.22-1.26-1.58-.45.32-.07,1.36-.28,1.81-1,2.21-2.05-1.22-2.75-1.48-.85-.33-.94.79-.94,1.39a4.17,4.17,0,0,0,1.46,3.07C131.89,52.23,133.63,49,133.48,47.08Z"/><path class="cls-1" d="M121.52,47.4c-.51.74-.89,2-2,1.69-1.39-.39-1-2.26-1.74-3.15-2,2.64,1.75,8.25,4,4.65A7,7,0,0,0,123,47.73C123.12,46.22,122.24,46.35,121.52,47.4Z"/><path class="cls-1" d="M124.74,58.66c.81.18,2.93.11,2.2-1.13C126,56,122.93,58.27,124.74,58.66Z"/><path class="cls-1" d="M168.36,92.16c.54.08.71-.2.52-.86C168,91.25,167.86,91.53,168.36,92.16Z"/><path class="cls-1" d="M110.6,79.91a4,4,0,0,0,.79-.68c-.86-.53-.35.62-1.39-.08C109.78,79.45,110.15,80.15,110.6,79.91Z"/><path class="cls-1" d="M146.83,127.06c-.38.62-.34.46.06.87C147.22,127.43,147.28,127.44,146.83,127.06Z"/><path class="cls-1" d="M250.89,80.41a29.41,29.41,0,0,0-.68-6.54c-.39-1.49-1.34-4.16-3.15-4.42-2.71-.39-4.22,5-5,6.82-.15-2.17,0-4.48-.84-6.54-.66-1.65-2.31-3.21-3.74-1.36-1.27,1.65-1.52,4.09-1.85,6.07-.44,2.58-.7,5.17-1,7.76-1.25-2.4-1.46-5.15-2.44-7.64a36.54,36.54,0,0,0-3.79-6.69A13.78,13.78,0,0,0,224,63.5c-1.56-.9-4.29-1.89-5.78-.38-1.24,1.26-1,2.95-1,4.54,0,.71.14,1.19-.49,1.55-.3.18-.78.08-1.12.18a4.26,4.26,0,0,0-1.41.75c-3.22,2.39-4.7,6.69-5.16,10.53-.58,4.86,1.32,9,2.95,13.48.26.71,1.08,2.22,1,3s-1.21.89-1.95.91a58.38,58.38,0,0,1-6.74-.32c-5.26-.49-10.51-3-15.22-5.28a11.12,11.12,0,0,1-2.77-1.3c-.66-.61-.84-1.59-1.41-2.29-1.39-1.72-2.28-3.18-4.34-4.22s-4.22-2-6.27-3.19c-2.52-1.43-4.86-3.25-7.28-4.85-4.49-3-9-6.24-13.73-8.78-2.21-1.17-4.69-1.36-7-2.33a11.93,11.93,0,0,0-7.33-.34,19.58,19.58,0,0,0-3,1.42c-1.23.52-2.23-.06-3.31-.68-1.65-1-3.28-2.51-.93-3.54a10.55,10.55,0,0,0,2.49-1,14.46,14.46,0,0,0,1.94-2.4c1.34-1.63,2.14-3.5,4.11-4.52,2.17-1.12,4.74-1.42,7.06-2.16,2.51-.79,5-1.73,7.43-2.66,4.43-1.67,9-3.47,12.23-7.15A16.5,16.5,0,0,0,170.92,31,31.13,31.13,0,0,0,159.61,8.58c-8-6.52-18.2-8.69-28.32-8.58-4.75.06-10.42.68-14.38,3.56-3.42,2.5-4,6.85-3.48,10.79.21,1.6.91,3.7-.21,5.11-.63.79-1.76,1-2.61,1.47a12.89,12.89,0,0,1-3.22,1.54c-5.13,1.38-10.54.9-15.79.82-8.74-.12-17.7,2.24-24.22,8.4-5.27,5-6.84,14.35-.42,19.2,5.19,3.92,13.33,3.49,19.45,2.81,1.89-.22,3.2-.52,3.2,1.8,0,2.53-.41,5.18.23,7.67a4.45,4.45,0,0,0,2.14,3,4.89,4.89,0,0,0,6.7,0,40.79,40.79,0,0,0,4.41-1.61c2.44-1,4.69-2.55,7.11-3.57,1.63-.7,2.86,1.55,4.32,0,.26-.29.31-.72.72-.86.63-.23,1.7.58,2.26.83.83.39,1.67.67,2,1.59a5.28,5.28,0,0,1-.12,3.1c-.65,1.85-2.4,1.48-4,1.36-2.78-.22-5.54-.68-8.33-.87a12.4,12.4,0,0,0-7,1.8C95.56,70.49,91.87,74.6,88,78a75.41,75.41,0,0,1-6.16,5.13A22,22,0,0,0,79,85.21a4.78,4.78,0,0,0-1.19,2.63c-.5,1.92-3,2.87-4.54,3.88a31.88,31.88,0,0,1-7,3.33A97.47,97.47,0,0,1,50.3,99.18c-2.67.47-5.32.78-8,1-2.32.22-4.8.94-7.12.37A13.92,13.92,0,0,1,37.94,98,19.7,19.7,0,0,0,41,94.29a17.66,17.66,0,0,0,3.27-8.49c.25-2.83,0-6.2-1.74-8.59-.59-.82-1.75-1-2.28-1.79s-.32-2-.61-2.86a13.88,13.88,0,0,0-4.8-6.17,9.47,9.47,0,0,0-7.48-1.17c-4.42,1.33-7.14,6.06-9.16,9.88-1.11-2.32.74-5.78-1.42-7.68-1.82-1.61-3.27,1.51-3.88,2.84C10,76.51,9.43,83.14,8.24,89.83c-.49-.48-.24-1.71-.2-2.29.09-1.07.08-2.11.08-3.19,0-2.71.51-5.44.28-8.14-.13-1.57-.63-4.87-2.91-4.35C3.56,72.3,2.35,75,1.75,76.67A19.25,19.25,0,0,0,.73,84c.06,2.8-.48,5.54-.61,8.33a47.93,47.93,0,0,0,1.56,16,34.3,34.3,0,0,0,30.2,24.16,44.88,44.88,0,0,0,7.86-.41c2.61-.28,5.22-.4,7.82-.72a55,55,0,0,0,16.69-5c2.77-1.29,5.37-2.89,8.09-4.27a14.35,14.35,0,0,0,2.77-2,2.61,2.61,0,0,1,2.23-.83c-.31-.82.59-1.08,1-1.6a2.8,2.8,0,0,1-.07.76c.31-.66.59-.66.86,0,.26-.76.45-1.53.76-2.27,1.2.61,1.1,2,2.71,1,1.32-.87,2.53-1.89,3.88-2.74,3.07-1.94,5.72-4.46,8.8-6.38a40.25,40.25,0,0,1-.12,5.6,31.22,31.22,0,0,1-1.42,5.11c-1,3.12-1,6.45-2.11,9.53-.44,1.28-1.59,2.35-1.92,3.59a11.21,11.21,0,0,0-.09,2c5.34,1.28,10.67,2.61,16.06,3.67,1.49.3,3.35.42,4.89.82l.88.09c3.52.29,7,.45,10.57.6,7.37.33,14.76.42,22.14.09h.42c.26-.35.4-.15.63-.36s.49-.91.81-1.1.71,0,1.06-.13c.53-.26,2.82-2.79,2.43-.63,1-.33.23-.64.35-1.29.25-1.32.85-.37,1.45-.26,1,.19,1-.62,1.51-1.21s1.44-.78,1.12-1.72a1.12,1.12,0,0,1,.49,1c.67-.62,1.07-1.55,1.72-2.13a2.57,2.57,0,0,1,2.43-.22,32.36,32.36,0,0,1,2.9-1.56,5.36,5.36,0,0,1-1.14-.64,3.48,3.48,0,0,1-1-2.23,45.14,45.14,0,0,0-1.68-5.33,55.19,55.19,0,0,1-2.52-10.46c-.5-3.41-1.59-7-1-10.42,3.73,3.62,7.56,7.09,11.38,10.6,1.43,1.32,2.84,2.66,4.28,4,1.08,1,2.43,2.45,3.93,2.74,1.93.37,1.23-1.76,2.55-2.09.8-.2,3.24,1.85,3.87,2.26,4.05,2.56,8.53,4.19,13,5.94a52.87,52.87,0,0,0,14.48,3.92,38.1,38.1,0,0,0,13.85-1.38c8.91-2.52,15.46-8.49,20.27-16.22C247.23,101.25,251.22,90.93,250.89,80.41ZM153.27,47.34l.65-.18-1,.41-.36.17C152.81,47.6,153,47.48,153.27,47.34Zm65.89,28.71c.2-.68.36-1.37.54-2.06a29.84,29.84,0,0,1,6.22,11.31c.71,2.6,1.8,7.32-1.55,8.66-2.72,1.09-4.24-2.83-4.93-4.76A21.4,21.4,0,0,1,219.16,76.05Zm-75.9-5.94c.55-.49.38.16.74.09s.36-.3.65-.37c1.2-.29,3,.08,4.25,0,1.46-.08,4,.23,4.66,1.93.42,1-.22.68-.93.61a13.7,13.7,0,0,0-1.57,0,2.15,2.15,0,0,1-.8,0A.56.56,0,0,1,150,72a17.51,17.51,0,0,0-2.38.35,4,4,0,0,1-2.94-.93,1.38,1.38,0,0,1-1.17.8l-.7-.26c-.09,0-.42.23-.66.15C142.6,71.52,142.66,70.65,143.26,70.11ZM130.47,38.82c-.2.15-1.38.47-1.33,0S130.26,38.44,130.47,38.82Zm-14,17.9a16.31,16.31,0,0,1-1.6-2,2.46,2.46,0,0,0-.73-.59c-.27-.17-.42.07-.65-.33-.58-1,1.22-2.5-.69-2.9-.65-.14-2.21.38-2.4-.55-.27-1.31,2.24-1.4,2.83-2.07,1.17-1.32.37-3.57,1.09-5.1s2.42-1.7,3.8-2.14c1.92-.6,3.86-1,5.81-1.44,1.36-.34,3.62-1.7,4.89-.5-1.95.43-.82,1.11.48,1.5a22,22,0,0,0,4.56.72,16.59,16.59,0,0,0,4.72-.16c1.44-.29,3-1.54,4.54-1.22-.83,1.45-3.32,2.25-4.83,2.63-.77.19-1.26.13-1.16,1.09s.91,1.86,1.09,2.83a6.49,6.49,0,0,1-.42,3.67c-.45,1.19-.56,1.34-.16,2.48.61,1.76-.71,3.71-1.92,5-4.94,5.18-14.34,3.22-19.27-.92Zm.37,11.78c.27,1.35,1,1.32,2.21.68,1.75-.92,2-2.43,2.17-4.23s.33-2.4,2.11-2a14.06,14.06,0,0,0,3.55,0c1.34,0,1.81.17,1.92,1.54A5,5,0,0,0,130.15,68a11.34,11.34,0,0,0,3.69,2.3,6,6,0,0,0,2.07.7c.3,0,1.81-.16,1.84.32s-2.07,1.38-2.3,1.5a14.86,14.86,0,0,1-3,1.32,24.44,24.44,0,0,1-7.57.74c-4.09-.07-9.74-1.8-12.19-5.43Zm-6.76,3c.79.53-1.1.1-1.09.1a.84.84,0,0,1,1.05-.14Zm-2.41-.31c.37.17.8.49,1.15.06.22.65-1.54,1.59-1.17-.1Zm-.49.48.17.26c-.77.41-1,.18-1-.65.32,0,.39.64.81.35ZM95.45,79.42c.21-.68.23-1.68,1-.77.31-1.12,3.8-1,4.66-1.06,2.77-.16,5.54-.24,8.3-.52,5.66-.56,11.42-.27,17.1-.29a26.57,26.57,0,0,1,3.68.11,13,13,0,0,0,3.62.48,10,10,0,0,1,2.87-.33,30.23,30.23,0,0,0,3.92.25c5.87,0,11.73.22,17.61.23a9.19,9.19,0,0,1,3.58.26c.4.18.84.78,1.14.85s.14-.47.61-.22c.62.32.14,1.33-.27,1.49.24-.09-.45-.19-.38-.19-.33,0-.61.27-1,.25a2.75,2.75,0,0,1-1.42-.64c0,.12.23.91,0,1s-.46-.74-.48-.92c-1.31,1.16-2.71.51-4.34.66-1.15.1-3.56.87-4.37-.33a1.19,1.19,0,0,1-.31.67q-.34.54-.6-.09l-.63.12c-.39,0-.9-.17-1.31-.2-.62-.06-.5.39-1,.4-.27,0-1-.38-1.43-.41a20.56,20.56,0,0,1-2.46.2c-.56-.07-1.06-.52-1.6-.54s-.9.49-1.44-.23c-.11,0-.18.39-.22.4l-.58.1a3.61,3.61,0,0,1-.65.24c-.27,0-.42-.2-.71-.2-.48,0-2,.41-2-.48-1.72.64-3.18.39-5,.54a6.62,6.62,0,0,1-2.08-.18,9.24,9.24,0,0,0-2.57.09,4,4,0,0,1-2-.7c-.31-.14-.51-.32-.89-.24-.22,0-.06.4-.13.43-.33.13-.56,0-1,0-.84.06-1.18.76-2,.1l.86-.1c-.83-.35-1.91-.53-1.71.74-.71-.1-.1-.58-.44-.75s-.74.12-1.17.26A8.2,8.2,0,0,1,115,80c-1.36-.08-4.55,1-5.53-.41,0,.31-.35,1.15-.79,1.11-.14,0,.26-.91.3-1-.22.47-1.24.56-1.75.81.06-.25.12-.51.17-.77-.47.5-.69.2-1.24.36-.24.08-.59.57-.8.6a1,1,0,0,0-.9-.36,1.75,1.75,0,0,0-.72,0c-1,.07-1.85.6-2.81.24s-1.15-1.13-1.64.16c-.13-.23-.26-.46-.4-.69l-.48.75c-.63-.41-.66-.65-1.39-.5a.59.59,0,0,1-.52,0,1.49,1.49,0,0,1-.13.39c0,.31-.11.42-.28.31a.94.94,0,0,1-.39-.24,7.23,7.23,0,0,1-1.61.1c-.2,0-1.44-.69-1.53-.58C93.16,79.5,94.9,77.83,95.45,79.42ZM50.1,125.61c-.4.21,0-1.06-.08-.64C50.62,125.19,50.64,125.4,50.1,125.61Zm28.35-13.07a10.34,10.34,0,0,0-1.66.84c-.18.14-.24.45-.42.56-.34.21-.82.07-1.17.25-.58.28-1,.68-1.68,1a28.8,28.8,0,0,0-2.9,1.42c-1.61.84-3.34,1.56-5,2.25-.85.34-3.2,1-3.12,2.26-.19.06-.39-.36-.78-.33-.55,0-1.27.68-1.84.83-1.06.29-1.88.32-1.88,1.67-.33-.23-.42-.79-.87-.86s-.72.46-1.12.63-1.07,0-1.54.22a3.18,3.18,0,0,1-.69.57,2.42,2.42,0,0,1-.76,0c-1,.21-1.92.58-2.93.78s-1.64.26-1.23,1.42c-1,.2-1.3-.91-2.48-.5A34,34,0,0,1,42,126.64c-.77.15-1.57.5-2.35.58a14.59,14.59,0,0,0-1.61-.08,15.66,15.66,0,0,1-1.87.39,10.38,10.38,0,0,1-2-.22,4.39,4.39,0,0,0,.33.73c-.43-.09-.64-.62-1-.69s-.74.32-1.06.23c-.14,0,0-.47-.29-.55s-.32,0-.55,0a5.53,5.53,0,0,0-1.15,0c-.26.14,0,.39,0,.43-.88.65-.89.3-1.28-.38-.58-1-1.27-.37-2.31-.54s-2.09.32-3.23.25a12.09,12.09,0,0,1-3.78-1.55,28.41,28.41,0,0,1-6.64-4,32.56,32.56,0,0,1-8.89-12.56C2.35,103.42,2,98,2.14,92.44a76.13,76.13,0,0,1,.89-10c.36-2.27.43-6.29,3-7.32.44,5.3-1,10.71-.08,16A9.35,9.35,0,0,0,8,96c1.8,1.74,2.22-.77,2.38-2.16.31-2.58.87-5.15,1.27-7.72s.68-5.16,1.23-7.7c.2-.93,1.83-7.71,3-7.39-.2,5-.88,9.8-.88,14.75a42.26,42.26,0,0,0,.1,6.06c.15,1,1.07,4,2.66,3.74s-.14-2.33-.28-3.13A23.45,23.45,0,0,1,18,85.51,28.25,28.25,0,0,1,22.39,74c2.1-3,5.33-5.88,9.22-5.35,1.66.23,3,.64,3.79,2.16.66,1.19,3.24,2.55,1.74,4s-3.56.27-5.08-.06A7,7,0,0,0,26.67,76C24,77.82,22.5,81.16,22,84.28c-.67,4.21,1.12,15.24,7.68,12.77C34,95.41,37.33,89.5,37,85c-.15-1.81-.86-5.25,1.65-5.74,3.2-.62,3.66,2.92,3.33,5.21a20,20,0,0,1-4.26,9.1c-1.76,2.3-3.81,3.74-5.93,5.65-.63.56-2.23,1.83-2,2.87s2.81,1.48,3.82,1.67c5,.93,10.6.07,15.58-.58,10.22-1.34,20.32-4.64,28.7-10.7.34,3.75.77,7.49.93,11.26.07,1.82.09,3.68.3,5.5C79.26,110.33,79.72,111.9,78.45,112.54Zm-44-24.66A12.94,12.94,0,0,1,30.61,93c-3.29,2.47-6.08-.56-6.54-3.89s.47-7.71,3.46-9.85c1.79-1.28,3.52-1.19,5.57-.77.48.1,1.27.06,1.54.54.07.11,0,1.57.08,1.57.14,2.4.67,5-.26,7.28ZM95.22,105.2c-.77.86-1.35.49-2.21.37-.09-.31-.25-.36-.47-.13a2.49,2.49,0,0,1-.83.29,19.15,19.15,0,0,0-2.12.36c0-.23.26-.64.1-.88a3.13,3.13,0,0,1-2.06.83c-.72,0-2-.54-2.59.12l-.06-.77a2.59,2.59,0,0,0-.76.59,1.57,1.57,0,0,0-.32-1c-.48,1-1,1-1.92.63.12,0-.93-.57-.89-.39-.34-1.41,4.94-1.3,5.49-1.35,1.39-.14,2.77-.22,4.16-.35s2.29-.33,3.2.77C93.54,102.73,97.37,102.8,95.22,105.2Zm58.34,23.41c-.35.22-1.05-.27-1.46-.24a14.63,14.63,0,0,1-1.48.33c-.56,0-1.18.17-1.76.18s-1.06-.26-1.64-.14-.55.51-1.16.15c-.3-.18-.35-.85-.76-.86s-.33.71-.65,1c-.09-1-.87.66-1.19-.57-.28.41-1.35,1-1.87.65s-.31-1-.51-1.47c-.32.88-1.2,1.8-1.12.19-.43.53-1.58.45-1.29,1.36-.35,0-.43-.5-.72-.54a1,1,0,0,0-.49.16c.14,0-.41.2-.42.2.37-.08-1.08-.21-.83-.2a2,2,0,0,0-.63.16,1,1,0,0,1,.13-.88c.33-.35-.24-.49-.46-.49,0,.35-.13,1.13.25,1.39a1,1,0,0,1-.43.09,8,8,0,0,1-1.07-.19c-.92-.1-.73.1-1.3.39-.21.11-.27.29-.57.26a.38.38,0,0,1-.33-.31c-.32,0-.08-.13-.57-.09-.06.1-.11.2-.17.29a.52.52,0,0,1-.68.17c-.72.16-3.12.83-2.88-.41l-1.1.53c-.16-1-2.15.33-2.6.4s-.62-.14-1.16-.25c-.1,0-.29.3-.52.25-.59-.12-.7-.18-.8-.82-.42.79-.77.44-1.54.57-.17,0-.28.36-.52.3s-.18-.36-.3-.4-.09-.29-.25-.33-.81.47-1,.55a2.91,2.91,0,0,1-1.47.39c-.49-.11-.27-.47-1-.43-1.09.06-1.55,1-2.23-.47-.3.58-.26.74-.76.94a6.48,6.48,0,0,1-1.76,0c-2-.07-4,.62-6.08.44a9.81,9.81,0,0,0-2.54-.11c-.94.15-1.87.38-2.83.47-.48,0-1.5.18-1.74-.44s.57-.92.13-1.55.83-1,1.26-1c.7-.1,1.62.1,2.09,0,.72-.26,1.44-.49,2.18-.68,1-.14,2-.16,3-.25a9.91,9.91,0,0,1,1.08-.12c.49,0,.69.29,1.09.29a19.71,19.71,0,0,0,2.18-.5c.88-.1,1.77-.15,2.65-.19,1.87-.09,3.71,0,5.57-.06.85,0,3.11-.88,3.54.11.59-.75,2.1-.65,2.94-.67,1.48,0,3-.18,4.43-.25a34.35,34.35,0,0,0,3.93,0,4.86,4.86,0,0,1,1.69-.22c.58.07,1.46-.23,2-.1,0,0,.62.39.42.41.22,0,.21.14.45.07s.17-.5.84-.64a25.55,25.55,0,0,1,3.5,0c1-.06,2.09-.08,3.14-.08a10,10,0,0,1,1.55,0c.23.05.71.35.91.32.55-.09.83-.47,1.58-.45a20,20,0,0,0,2.45,0c.81-.06.94-.17,1.34.5s.51,1.55-.22,2C153.54,127.62,154.12,128.26,153.56,128.61ZM99.83,116c-.19-1,8-1.48,8.77-1.54,1.7-.13,3.4-.22,5.11-.27a31.32,31.32,0,0,0,4.11,0c1.3-.2,2.88-.61,4,.31.17-1.26,5.08-.65,6-.64,4.07,0,8,0,11.89-.23a65.9,65.9,0,0,1,6.88-.23,9.67,9.67,0,0,0,2.84.09c.65-.15,1.36-.47,2,0a2.78,2.78,0,0,1,.55,3.06c-.37.54-.7.48-1.29.39a4.29,4.29,0,0,0-2.51,0c.15-.06-.62.12-.55.11-1,.08-2.49.81-3.39,0,.36.06.89-.58.43-.64s-.56.33-.82.45a1.25,1.25,0,0,1-1.76-.27,1.23,1.23,0,0,1-.17-.32c-1.1,1-1.22.69-1.7-.48-.38.28-.46,1-.75,1.18,0,0,.14.45-.07.43s-.26-.34-.42-.36-.14-.3-.23-.32-.21.16-.32.16c-.3,0-1.17.63-.86-.28-.46.59-.65.21-.82-.32l-1.59,1.21c-.24-.68-.66-.5-1.2-.26.16-.47.06-.92-.34-.59-.23.19-.39.8-.63,1-1-1-1.32-.71-2.65-.58a2.45,2.45,0,0,1-1.6-.16c-.4-.27-.63-1.27-1.31-.46.15-.18-.09,1.19-.13,1.4a2.89,2.89,0,0,1-.77-.75c-.39.78-1.42.08-2.27.24-1.34.25-2.71.68-3.89-.32-.08.32-1,.73-1,.75.06-.57.42-.37-.31-.48-.14,0-.29.22-.42.25a6.37,6.37,0,0,1-1.38,0,49.91,49.91,0,0,0-5.31.5,4.21,4.21,0,0,1-1.9-.08c-.59-.24-.57-.51-1.16-.36.18,0-.38.54-.35.52a1.16,1.16,0,0,0-.53-.21c-.12,0-.07.26-.1.38h-.43c-.39,0-.75-.35-1.12-.36.07,0-1,.4-.94.42-.75-.37-.53-.26-1.47,0a24.32,24.32,0,0,1-2.69.3C98.57,118.93,100.16,117.6,99.83,116Zm41.6-12.53a4.94,4.94,0,0,0-3.41-.21c-.5.11-2,.85-2.57.53-.37-.22.29-.59-.34-.78-.33-.1-.9.45-1.3.42-1.11-.08-.79-.82-1.89.13a1.55,1.55,0,0,1-.44-1.33c-.79.67-.73,1.8-2.14,1.6-.53-.08-.63-.62-.9-.72-.59-.21-.66.17-1.17.47a1.72,1.72,0,0,1-.65.32.73.73,0,0,1-.6-.16,2.52,2.52,0,0,1-1.06.08c-.33-.1-.43-.68-1-.55s-.56.51-.46,1.07a2.31,2.31,0,0,1-1.28-.69c-.41,1-1.28.17-1.76,1-.63-.75-1-.54-1.81-1.27l.11.91c-.6-.11-.87-.54-1.39,0-.5-.93-2,.4-2.81-.5-.34,1.14-2.65.87-3.62.89a10.32,10.32,0,0,0-2.35.15,8.29,8.29,0,0,1-2.48.28,6.52,6.52,0,0,0-1.53-.08c-.82.09-1.53.52-2.38.32-1.29-.31-2.07-2-.64-2.73,1-.51,2.74-.32,3.81-.42a34.64,34.64,0,0,1,5.57-.33,21.6,21.6,0,0,0,4.09-.36c1.07-.1,2.82-.29,3.52.77.27-.31.24-1,.81-.8.78.22,1.52-.27,2.27-.12.25.06.77.51.88.52s.82-.43,1.08-.49a15.85,15.85,0,0,1,5.32-.11c.87.13,1-.27,1.77-.47a18.33,18.33,0,0,1,2.77-.1c2-.13,3.94,0,5.9-.18s4-.23,6-.34c1.37-.07,4.66-.85,5.79.17.94.84-.27,2.29-1.2,2.63-.7.24-1-.28-1.56-.23s-.38.76-.91.11c-.33.64-2.39.37-3,.41-1.28.09-2.37.35-3.24-.85.08.32.14.66.2,1Zm33.75-2.12c-.31.88-3,.38-3.66.29-.83-.12-1.78-.31-2.54-.41a2,2,0,0,0-.33-.31.7.7,0,0,1-.37.29c-.35.07-.35.43-.81.35,0,.54.35.24.64.43-.72.48-.39-.07-.8-.06a.4.4,0,0,0-.41-.17,2.12,2.12,0,0,0-.63.29c-.18.19-.33.2-.46,0a.85.85,0,0,0-.45-.23c-.71.12-.91.43-1.7.38-1.14-.07-2.37.23-3.49.07-.69-.1-1.85-1.19-2.17-.13-.48-.78-1.24-1.32-1.7-2.13,2.14-.12,4.28-.27,6.42-.34,1.87-.07,3.93.14,5.68,0s3.38-.26,5-.41,2.42.28,1.78,2.06Zm1.27-9a11.79,11.79,0,0,0-1.23-.16c-.23,0,0-.46-.55-.33a.94.94,0,0,0,.6.55c-.88.3-1.53-.43-2.13-.53s-.59,0-1.16.61c-.61-.75-.5-.28-1-.28-.19,0-.19.28-.49.24s-.29-.42-.44-.47c-.84-.25-1.7,1-2.65-.08-.23,1.15-2.86-.29-3.88-.09s-.6.59-1.46-.06-.59-.21-1.54.3l-.49.37c-.66-.08-.62-.76-1.45-.72s-1.26.73-2.07-.12c-.18.64-.21.36-.63.52a.56.56,0,0,1-.6-.18.42.42,0,0,1-.34.33,3.63,3.63,0,0,1-1.7-.12c-.62-.32-.12-.45-.55-.82-.19,1-.61.8-1.49.89-.68.08-.83-.13-1.47-.23a7.62,7.62,0,0,0-2.07.25c-.26,0-.6.22-.86.16s-.33-.24-.47-.29-.14-.2-.43-.27-.56.14-.77.17a7.44,7.44,0,0,1-4.2-.33c.68,1.19-1.58.55-2,0-.51.79-1.11.24-2.13.3s-2.45.36-2.84-.86a3.09,3.09,0,0,1-.86,1.07c-.64.32-.71-.15-1.31-.34-.81-.26-.64.23-1.14.33-.85.17-1.31-.42-2.06-.74,0,.49,0,.8-.48,1.1-.37-1.37-1.72.12-1.49-1.72-.52.33-1.24.59-1.39,1.26.86-.23.1.33.06.35a5.74,5.74,0,0,1-.59-.56,2.87,2.87,0,0,1-.07.77c-.34-.18-.66-.48-.94-.64s.11-.42-.31-.44c-.23,0-.46.47-.69.51s-.19-.45-.34-.43-.6.36-.77.35c-.57,0-.18-.28-.61-.4-.78-.22-.73.29-1.28.47-1.27.41-1.14-1.5-2.43-.22-.31.3-.51.77-.93.75-.85-.06-.58-1-.4-1.56a25.41,25.41,0,0,1-3.16,1.72c0-.42.55-.74.08-1.11-.39.83-.8.85-1.7,1-.43.08-.52.18-1,0-.29-.12-.49-.59-.79-.62a2.86,2.86,0,0,1-.58.46c-.49.22-.8,0-1.28.06s-.56.42-1,.32-.22-.76-1-.58c-.25.06-.4.54-.8.65-.62.15-1.39-.14-2,0a7,7,0,0,1-1.37.2c-.37,0-.22-.27-.89.07l-.29-.72-1,.91a5.72,5.72,0,0,1-.12-.83,2.56,2.56,0,0,1-1.83.64,17.08,17.08,0,0,0-2,.35,2.8,2.8,0,0,1-1,0s-.35-.15-.23-.12-.1-.2-.14-.3c-.06-.29-.27-.3-.62,0-.18,0-.52-.26-.7-.2-.47.15-.4.5-.86.45-.3,0-.46-.47-.77-.5s-.68.25-1,.45c0,0,0,.07-.32.15a.86.86,0,0,0,.32-.15c-.13-.1-1.81.08-1.08.09a4.14,4.14,0,0,0-1.81.23c-.31-.21.07-.64-.25-.82s-.31.27-.34.28c.18-.06.09.3-.09.37a.81.81,0,0,1-1-.62,1.11,1.11,0,0,1,0-.19c-.48.72-.61.43-1.32.47s-1.29.41-2,.4a2.6,2.6,0,0,1-2.76-1.71c1.46.18,2.93-.76,4.36-.54.47.07.76.42,1.18.36s.86-.63,1.51-.69c1.43-.13,2.84,0,4.29-.22a23.76,23.76,0,0,1,5.26-.29c1.35.1,2.44-.42,3.81-.52,1.76-.13,3.54-.15,5.31-.24a54.88,54.88,0,0,1,5.58-.29,14.41,14.41,0,0,0,1.61,0c.24,0,.46-.18.71-.15s.46.36.8.35c.57,0,1.18-.49,1.86-.51,1.12,0,2.23,0,3.35-.08s2-.28,3-.27c.69,0,.86.6,1.27.66.72.11,4.39-2,4.71-.11,1.91-1.31,4.47-.2,6.6-.44,2.73-.32,5.52,0,8.27-.15a64.53,64.53,0,0,1,8.46.26,21.87,21.87,0,0,0,3.43.14,6.35,6.35,0,0,1,1.63,0,3.68,3.68,0,0,1,1,.71c.52-.46.17-.53,1.09-.56.71,0,1.38.14,2.08.18,1.27.07,2.54-.1,3.81-.06,1,0,2.08.18,3.14.19s2.5,0,3.32,1c-.09-.28-.17-.57-.26-.86a15.93,15.93,0,0,0,3.83.34,2.42,2.42,0,0,0-.79,1c.7-.09,1.17-.58,1.9-.58s.75.3,1.4-.1c.08.49.15,1,.23,1.47.9-.21.31-.88.38-1.49.73.22,1.35,0,1.06,1a1.59,1.59,0,0,1-2,.92Zm72.14-10.9a30.52,30.52,0,0,1-1,7.31c-3.65,13.86-11,29-25.78,33.39-3.6,1.07-7.1,1.88-10.83,1.47a8.34,8.34,0,0,0-1,0c-.61,0-.09.23-.77,0s-1-.57-1.57-.75c-1.47-.48-3-.58-4.53-1-3.66-1-7.44-2.13-11-3.44a38.93,38.93,0,0,1-4.78-2.31c-1.6-.85-3.3-1.37-4.92-2.14-1.27-.61-3.46-1.41-4.36-2.56s.37-3.82.75-5.12c1.28-4.42,2.82-8.78,3.79-13.29,3.34,3.88,8,6.28,12.78,7.82a47.78,47.78,0,0,0,8,1.83,23,23,0,0,0,7.59.27,10.8,10.8,0,0,0,5.53-2.65,2.42,2.42,0,0,0,.78-2.17c-.34-.94-1.32-.5-1.86-1.19s-.39-2-.54-2.78a28.52,28.52,0,0,0-1-3.84,32.72,32.72,0,0,1-2.17-7.52,10.58,10.58,0,0,1,1.42-6.36c.54-.93,1.87-3.46,3.18-3.35s-.5,6.16-.56,7.4c-.25,4.89.4,10.1,2.91,14.39,1,1.64,2.36,3.55,4.41,3.76s3.92-1.5,5-3.23c2.52-4.22,1.25-10,0-14.44-1.57-5.43-5.66-9.17-8.25-14,3.87.38,5.94,2.84,7.92,6a35.91,35.91,0,0,1,4.72,11.54,28.66,28.66,0,0,1,.13,6.07c0,.68,0,3.18,1.11,3.08s1.58-2.92,1.75-3.78c.4-2,.83-3.94,1.18-5.92.61-3.5.88-7.08,1.61-10.56.12-.59.37-2.22,1.25-1.78.68.34.57,2.86.59,3.45.06,1.44.15,2.89.16,4.33,0,2.15-.41,4.37-.2,6.5.14,1.39.88,2.93,1.81,1s1.11-4.18,1.62-6.19a22.24,22.24,0,0,1,2.23-6.1c.32-.51.66-1.34,1.36-1.09.51.17.89,1.39,1,1.81a16.62,16.62,0,0,1,.49,6.08Z"/><path class="cls-1" d="M39.82,29.2c5.81-1.53,11.64-8,8.29-14.15-2.32-4.24-8.24-9-13-5.38a8,8,0,0,0-2.94,6.54c.1,2.85,2.31,5.08,4.58,2.27,1.57-1.94,1.24-5.14,4.69-2.74,2.15,1.49,3.73,5.49,1.92,7.72-4.07,5-12.78-2-15.12-5.6-4.65-7.09,2.71-12,9.51-11.22,1.76.21,5.91,1.81,7.45.37,2-1.92-.92-3.78-2.42-4.63C31.72-3.84,15.89,9.91,23,21.45,26.21,26.69,33.63,30.83,39.82,29.2Z"/><path class="cls-1" d="M193.39,53.08c2.93-.33,6.68-.34,9.6-1.72,3.1-1.46,3.8-3.74,5.79-5.62,5.4-5.12,10.61-1.85,14.93-.55,4.09,1.24,8.32.47,12.54-2.5,1.67-1.18,8.68-6.38,6.76-7.6-1.39-.88-4.91,1.48-6.15,2.18-2.69,1.51-5.2,2.89-8.41,3-6,.25-8.87-3.55-15.76-2-7.13,1.59-6.13,5.4-10.59,8.43-3,2-5.84,1.11-8.92,2.5S189.67,53.5,193.39,53.08Z"/><path class="cls-1" d="M206.12,37.79c4.28-2.67,4.34-7.83,9.83-9.73,5.68-2,7.85,2.52,11,3.75,4.76,1.88,12.7.11,16.09-4.31,1-1.33,6-8.78,1.15-7.83-2.54.5-3.25,3.72-4.55,4.91a14.24,14.24,0,0,1-9.44,3.35c-5.77-.57-5.62-5.95-13.21-4.84-6.78,1-8.22,6.8-13.23,9.77-2.91,1.73-6.2,3.32-4.16,5.41C201,39.72,203.63,39.35,206.12,37.79Z"/></g></g></g></g></svg>