<svg xmlns="http://www.w3.org/2000/svg" viewBox="0 0 2000 2000"><defs><style>.cls-1,.cls-2,.cls-3,.cls-4,.cls-5,.cls-6{fill:none;}.cls-2,.cls-3{stroke:#000;stroke-linejoin:round;stroke-width:20px;}.cls-3{stroke-linecap:round;}.cls-4,.cls-5,.cls-6{stroke:#cecece;stroke-miterlimit:10;}.cls-4,.cls-5{stroke-width:10px;}.cls-5{stroke-dasharray:59.45 19.82;}.cls-6{stroke-width:8px;}</style></defs><g id="Layer_2" data-name="Layer 2"><g id="Layer_1-2" data-name="Layer 1"><rect class="cls-1" width="2000" height="2000"/><polyline class="cls-2" points="1010.38 142 342 142 221.8 324 1011.52 324"/><line class="cls-2" x1="341.75" y1="324" x2="341.75" y2="1279.62"/><polyline class="cls-2" points="1010.76 142 1679 142 1799.34 324 1009.62 324"/><line class="cls-2" x1="1679.39" y1="324" x2="1679.39" y2="1280.06"/><line class="cls-3" x1="220.8" y1="1310.85" x2="933.75" y2="1310.85"/><polyline class="cls-2" points="925 1285.44 925 1063 1069 1063 1069 1310.61 1798.8 1310.61"/><line class="cls-4" x1="1765" y1="982.35" x2="1735" y2="982.35"/><line class="cls-5" x1="1715.18" y1="982.35" x2="298.28" y2="982.35"/><line class="cls-4" x1="288.37" y1="982.35" x2="258.37" y2="982.35"/><line class="cls-4" x1="1765" y1="657.35" x2="1735" y2="657.35"/><line class="cls-5" x1="1715.18" y1="657.35" x2="298.28" y2="657.35"/><line class="cls-4" x1="288.37" y1="657.35" x2="258.37" y2="657.35"/><path class="cls-6" d="M1204.22,1351V1147c0-.1-39.73-37.61-39.73-37.61"/><circle class="cls-6" cx="1203.8" cy="1147.15" r="84.15"/><line class="cls-6" x1="1204.22" y1="1186.54" x2="1227" y2="1163.75"/><path class="cls-6" d="M1287.56,1338.64V1232.59c0-.07,28.6-24.57,28.6-24.57"/><circle class="cls-6" cx="1287.85" cy="1221.38" r="60.58"/><path class="cls-6" d="M474.15,1338.64V1232.59c0-.07-28.6-24.57-28.6-24.57"/><circle class="cls-6" cx="473.85" cy="1221.38" r="60.58"/></g></g></svg>