<svg xmlns="http://www.w3.org/2000/svg" viewBox="0 0 2000 2000"><defs><style>.cls-1,.cls-2,.cls-3,.cls-4,.cls-5,.cls-6,.cls-7{fill:none;}.cls-2,.cls-3,.cls-6,.cls-7{stroke:#cecece;}.cls-2,.cls-4,.cls-5{stroke-linejoin:round;}.cls-2,.cls-3,.cls-4,.cls-5{stroke-width:20px;}.cls-3,.cls-6,.cls-7{stroke-miterlimit:10;}.cls-4,.cls-5{stroke:#000;}.cls-5{stroke-linecap:round;}.cls-6,.cls-7{stroke-width:10px;}.cls-7{stroke-dasharray:61.29 20.43;}</style></defs><g id="Layer_2" data-name="Layer 2"><g id="Layer_1-2" data-name="Layer 1"><rect class="cls-1" width="2000" height="2000"/><polyline class="cls-2" points="1263.15 207.21 1587 207.21 1817.75 525.94 1262.03 525.94"/><polyline class="cls-3" points="1262.75 1268.41 1705.36 1268.41 1705.36 536.07"/><polyline class="cls-2" points="743.63 207.21 419.78 207.21 189.03 525.94 744.75 525.94"/><polyline class="cls-3" points="744.03 1268.41 301.42 1268.41 301.42 536.07"/><line class="cls-4" x1="744" y1="222.21" x2="1263" y2="222.21"/><line class="cls-4" x1="744" y1="526" x2="1263" y2="526"/><polyline class="cls-4" points="806.02 262 806.02 126 876 126 875.9 262"/><line class="cls-5" x1="753.03" y1="1268.41" x2="934" y2="1268.41"/><polyline class="cls-4" points="898 1243 898 915.11 1110 915.11 1110 1268.17 1262.75 1268.17"/><line class="cls-6" x1="747.75" y1="134.97" x2="747.75" y2="164.97"/><line class="cls-7" x1="747.75" y1="185.4" x2="747.75" y2="1319.23"/><line class="cls-6" x1="747.75" y1="1329.45" x2="747.75" y2="1359.45"/><line class="cls-6" x1="1261.75" y1="134.97" x2="1261.75" y2="164.97"/><line class="cls-7" x1="1261.75" y1="185.4" x2="1261.75" y2="1319.23"/><line class="cls-6" x1="1261.75" y1="1329.45" x2="1261.75" y2="1359.45"/></g></g></svg>