<svg xmlns="http://www.w3.org/2000/svg" viewBox="0 0 2000 2000"><defs><style>.cls-1,.cls-2,.cls-3,.cls-4,.cls-5{fill:none;}.cls-2{stroke:#cecece;stroke-width:10px;}.cls-2,.cls-3,.cls-4{stroke-miterlimit:10;}.cls-3,.cls-4,.cls-5{stroke:#000;}.cls-3{stroke-width:20px;}.cls-4,.cls-5{stroke-width:14px;}.cls-5{stroke-linejoin:round;}</style></defs><g id="Layer_2" data-name="Layer 2"><g id="Layer_1-2" data-name="Layer 1"><rect class="cls-1" width="2000" height="2000"/><path class="cls-2" d="M421.76,603.77V400H531v98"/><polygon class="cls-3" points="1436 1353 263 1353 263 766.5 263 758 858 180 1436 758 1436 1353"/><rect class="cls-4" x="389.11" y="968.08" width="242.89" height="333.16" rx="36.44"/><line class="cls-4" x1="437.52" y1="1301.24" x2="437.52" y2="1344.43"/><line class="cls-4" x1="473.77" y1="1301.24" x2="473.77" y2="1344.43"/><line class="cls-4" x1="510.01" y1="1301.24" x2="510.01" y2="1344.43"/><line class="cls-4" x1="546.26" y1="1301.24" x2="546.26" y2="1344.43"/><line class="cls-4" x1="582.5" y1="1301.24" x2="582.5" y2="1344.43"/><line class="cls-4" x1="472.65" y1="1257.41" x2="600.62" y2="1257.41"/><circle class="cls-4" cx="437.14" cy="1257.41" r="15.37"/><polyline class="cls-5" points="1064 668.1 1064 545.91 941.56 545.91"/><path class="cls-4" d="M1064,545.91c0-.25-413,413-413,413"/><line class="cls-3" x1="1436" y1="758" x2="263" y2="758"/><polyline class="cls-4" points="738.74 1352.93 738.74 1228.67 864.18 1228.67"/><polyline class="cls-4" points="857.62 1235.34 857.62 1111.09 983.06 1111.09"/><polyline class="cls-4" points="976.49 1117.75 976.49 993.5 1101.93 993.5"/><polyline class="cls-4" points="1095.37 1000.16 1095.37 875.91 1220.81 875.91"/><polyline class="cls-4" points="1213.56 882.26 1213.56 758 1339 758"/><path class="cls-2" d="M1539.83,1404.07V743.43c0-.34-128.64-121.8-128.64-121.8"/><circle class="cls-2" cx="1538.5" cy="743.87" r="272.5"/><line class="cls-2" x1="1539.83" y1="871.41" x2="1613.6" y2="797.64"/></g></g></svg>