<svg xmlns="http://www.w3.org/2000/svg" viewBox="0 0 217.8 126.69"><defs><style>.cls-1{fill:#1b6d42;}</style></defs><g id="Layer_2" data-name="Layer 2"><g id="Layer_1-2" data-name="Layer 1"><g id="Layer_2-2" data-name="Layer 2"><g id="Layer_1-2-2" data-name="Layer 1-2"><polygon class="cls-1" points="213.29 71.68 213.29 71.67 213.29 71.67 213.28 71.68 213.29 71.68"/><path class="cls-1" d="M146.86,68.36q.18-.72.33-1.41a7.76,7.76,0,0,1,1.2.83,6.23,6.23,0,0,0,.8.54l.75.41,2.87,1.61,1.42.82c.52.29,1.05.58,1.6.86,1.11.57,2.32,1.13,3.67,1.73.73.33,1.82.82,3.14,1.46.66.32,1.37.68,2.12,1.09L166,77c.49.25,1,.5,1.49.73,1,.47,2,.88,3,1.31s2,.85,2.91,1.34l1.49.84c.54.3,1.09.58,1.65.85a55.52,55.52,0,0,0,7,2.8l7.16,2.24c2.3.78,4.59,1.74,6.92,2.67,1.17.47,2.34.93,3.53,1.35s2.48.79,3.61,1.11a22.57,22.57,0,0,1,3.09,1.07c.74.33,1.82,1.08,3,1.63a8.36,8.36,0,0,0,2,.71,4.25,4.25,0,0,0,1.42.07,3.73,3.73,0,0,0,1.52-.49A4.26,4.26,0,0,0,217,94.14a4.74,4.74,0,0,0,.38-.7,3.32,3.32,0,0,0,.24-.69,8,8,0,0,0,.22-2c0-1.17-.12-2.21-.18-3.08V86.25a10.61,10.61,0,0,0-.15-1.44c-.12-.9-.24-1.7-.29-2.4,0-.36-.05-.7-.05-1v-7a4.6,4.6,0,0,1,.06-.84v-.91a8.31,8.31,0,0,0-.06-1.22,4.9,4.9,0,0,0-.19-1,3.62,3.62,0,0,0-.64-1.25,3.83,3.83,0,0,0-1.19-1,6.65,6.65,0,0,0-1.13-.49,19.36,19.36,0,0,0-2.12-.54A8.33,8.33,0,0,1,211,67l-1.11-.38-2.4-.83c-1.68-.59-3.46-1.09-5.38-1.76l-6-2-13.67-4.43-3.58-1.17c-1.25-.4-2.5-.74-3.72-1.06s-2.42-.63-3.57-1L168,53.18c-.63-.19-1.28-.37-2-.51l-1.86-.35c-1.2-.22-2.37-.43-3.5-.66s-2.22-.5-3.22-.81c-.5-.15-1-.33-1.56-.52l-.83-.27-.78-.24c-.53-.15-1.07-.28-1.63-.38l-.63-.1-.57-.13A15,15,0,0,0,150,48.9a5,5,0,0,0-1.09,0,4.36,4.36,0,0,0-1.12.27,3.71,3.71,0,0,0-1.6,1.36,5.21,5.21,0,0,0-.67,1.55,6.92,6.92,0,0,0-.11,2.08,9.14,9.14,0,0,1,.06,1.81c0,.57-.11,1.17-.17,1.81a13.33,13.33,0,0,0-.09,2,14.35,14.35,0,0,0,.17,1.77A60.8,60.8,0,0,0,146.86,68.36Zm1.36-6.81c.09-.53.18-1.08.27-1.63s.21-1,.35-1.57a19.7,19.7,0,0,0,.41-2,9,9,0,0,0,.09-1.27,7.08,7.08,0,0,0-.06-1.18,3.54,3.54,0,0,1,0-.92s0-.15.07-.19h.1c.34.06.67.14,1,.23l.74.17.75.13a12.24,12.24,0,0,1,1.2.27l.65.21.77.25c.52.18,1.08.38,1.67.56,1.2.36,2.38.64,3.58.89s2.4.47,3.6.68l1.74.33c.53.11,1.07.26,1.62.43,1.12.34,2.29.77,3.57,1.16s2.48.7,3.69,1,2.4.63,3.53,1l3.56,1.16,13.64,4.42,6.11,2.07c1.92.66,3.83,1.2,5.46,1.77l2.35.81,1.08.38A12.93,12.93,0,0,0,211,71a16.41,16.41,0,0,1,1.71.42,2.76,2.76,0,0,1,.47.2h0v.25q0,.38,0,.75v8.71a12,12,0,0,0,.05,1.31c.07.88.2,1.75.31,2.58.05.42.1.83.13,1.24v1.38c.07,1,.17,2,.17,2.82a4.78,4.78,0,0,1-.1,1h-.2a4.3,4.3,0,0,1-1.09-.39c-.42-.21-.87-.46-1.35-.74l-.77-.45c-.26-.15-.67-.36-.94-.48a25.45,25.45,0,0,0-3.62-1.27c-1.18-.34-2.29-.63-3.36-1s-2.25-.84-3.4-1.3c-2.29-.92-4.65-1.91-7.12-2.75l-7.17-2.24a56.54,56.54,0,0,1-6.53-2.6c-.5-.25-1-.51-1.48-.78l-1.55-.86c-1.1-.58-2.19-1-3.22-1.49a43.85,43.85,0,0,1-5.42-2.55c-.81-.44-1.58-.82-2.27-1.16-1.4-.68-2.54-1.18-3.29-1.51-1.39-.6-2.65-1.08-3.82-1.49l-1.7-.55c-.58-.19-1.16-.34-1.72-.47a24.41,24.41,0,0,0-3.41-.52l-.87-.06a5.31,5.31,0,0,1-.8-.11,7.12,7.12,0,0,0-1.52-.2A47.89,47.89,0,0,0,148.22,61.55Z"/><path class="cls-1" d="M146.45,35.36c.52,2,.84,4.17,1.45,6.68.27-1.06.53-2,.76-3a52.38,52.38,0,0,0,13.49,4.56l2.55.51,1.71.34,2.16.48c5.5,1.26,11.92,3,18.16,5,3.12,1,6.15,2.21,9.2,3.29,1.52.54,3,1,4.53,1.45s3.08.74,4.27,1,2.48.67,3.63,1a13.08,13.08,0,0,1,1.49.51l1.51.65a9.15,9.15,0,0,0,1.85.55,3.46,3.46,0,0,0,2.48-.34,3.72,3.72,0,0,0,1.5-1.57,4.26,4.26,0,0,0,.35-.92,5.63,5.63,0,0,0,.14-.69,10.48,10.48,0,0,0-.15-3.06c-.15-.88-.32-1.56-.44-2.25-.19-.89-.4-1.49-.46-1.91a9.63,9.63,0,0,1,0-1.42c0-1,.11-2,.1-3a10.56,10.56,0,0,0-.11-1.49c-.09-.5-.2-.88-.28-1.19a4.74,4.74,0,0,1-.23-1.12,5,5,0,0,1,0-.77l.05-.7v-.22a5.34,5.34,0,0,0,0-.8,4.09,4.09,0,0,0-.46-1.6,4.19,4.19,0,0,0-1.44-1.6,9.45,9.45,0,0,0-4-1.34l-4.31-.65L200.78,31c-1.94-.35-4-.54-6-.76a58.47,58.47,0,0,1-6.2-1L182,28c-2.25-.45-4.54-.91-6.85-1.3-1.16-.19-2.32-.38-3.48-.53s-2.43-.29-3.57-.35l-3.38-.17a21.51,21.51,0,0,1-3-.33c-.95-.2-2-.53-3.25-.71l-3-.42c-1-.13-1.83-.28-2.61-.46l-.68-.15c-.26,0-.51-.1-.78-.13a6.75,6.75,0,0,0-1.68,0,4.48,4.48,0,0,0-3,1.71,6.26,6.26,0,0,0-1,2,10.52,10.52,0,0,0-.09,4.8C145.84,33.27,146.18,34.35,146.45,35.36Zm3-7.11a2.23,2.23,0,0,1,.32-.7.47.47,0,0,1,.15-.13.46.46,0,0,1,.28-.08,2.58,2.58,0,0,1,.68,0l.47.08.6.14c.94.22,1.94.38,2.94.52l3,.41c.88.13,1.86.42,3.05.67a25.18,25.18,0,0,0,3.57.41l3.38.17c1.13.07,2.14.15,3.27.32l3.35.51c2.25.38,4.5.83,6.73,1.28l6.65,1.33c2.15.42,4.44.79,6.51,1s4,.4,5.74.71l5.19.78,4.35.65A6.26,6.26,0,0,1,212,37c.15.12.19.16.19.19a.15.15,0,0,1,0,.13,1.71,1.71,0,0,1,0,.32v.83a8.42,8.42,0,0,0,0,1.23,9.14,9.14,0,0,0,.37,1.93c.08.3.15.57.19.8a6.61,6.61,0,0,1,0,.89c0,.74-.06,1.68-.1,2.89a12,12,0,0,0,.11,2.16c.15.83.38,1.5.47,2,.14.68.28,1.4.43,2.16a7.49,7.49,0,0,1,.12,1.89v.16a5.79,5.79,0,0,1-1-.31l-1.47-.62a17.42,17.42,0,0,0-1.84-.64c-1.18-.36-2.46-.75-3.87-1.09s-2.72-.57-4.13-1-2.81-.86-4.28-1.38c-2.93-1-6.06-2.27-9.27-3.32-6.38-2.13-12.92-3.86-18.52-5.14l-2.2-.49-1.73-.34-2.57-.5a52.41,52.41,0,0,0-14.25-.87,19.27,19.27,0,0,0,.59-3.85c0-1.22-.06-2.38-.11-3.54a10.24,10.24,0,0,1,.26-3.26Z"/><path class="cls-1" d="M197.53,43.49c.71,0,1.42.13,2.12.25.43.07.84.16,1.14.24l.47.12.49.16c.31.11.76.27,1.33.44.28.07.59.15.92.21a6.73,6.73,0,0,0,1,.07h.84c.23,0,.33-.15.51-.44a1.79,1.79,0,0,1,1.07-.95,1.79,1.79,0,0,0-.16-1.76,1.53,1.53,0,0,0-1.13-.74h-1.47a2.4,2.4,0,0,1-.53-.12l-1.78-.6-.62-.18c-.37-.1-.87-.22-1.41-.32a16.76,16.76,0,0,0-2.65-.27c-.71,0-1.12.67-1.66,1.92C196.59,42.76,196.93,43.44,197.53,43.49Z"/><path class="cls-1" d="M200.19,77.37c.67.17,4,.82,4,.82l1.76.38c.52.11.78.15,1.18.26a7.89,7.89,0,0,0,1,.21c.71.13,1.53-.48,1.89-1.81-.67-1.17-.57-1.89-1.08-2l-.81-.21c-.39-.11-1.09-.24-1.47-.32l-1.72-.34s-3.25-.7-3.91-.8-1.09.49-1.88,1.6C199.35,76.48,199.58,77.21,200.19,77.37Z"/><path class="cls-1" d="M208.93,108.23l-.81-.21c-.39-.11-1.09-.24-1.47-.32l-1.72-.34s-3.25-.7-3.91-.8-1.09.49-1.88,1.6c.24,1.32.44,2,1.05,2.21s4,.82,4,.82l1.76.38c.52.11.78.15,1.18.26a7.89,7.89,0,0,0,1,.21c.71.13,1.53-.48,1.89-1.81C209.35,109.06,209.44,108.34,208.93,108.23Z"/><path class="cls-1" d="M1.42,69.93a4.85,4.85,0,0,0-.11-.75,2.12,2.12,0,0,0,.05.56c.16,1.38.63,3.57.47,2.38C1.69,71.39,1.55,70.66,1.42,69.93Z"/><path class="cls-1" d="M217.67,118v-.79a10.61,10.61,0,0,0-.15-1.44c-.12-.9-.24-1.7-.29-2.4,0-.36,0-.7,0-1v-6.92a4.6,4.6,0,0,1,.06-.84v-.91a8.31,8.31,0,0,0-.06-1.22,4.9,4.9,0,0,0-.19-1,3.62,3.62,0,0,0-.64-1.25,3.83,3.83,0,0,0-1.19-1,6.65,6.65,0,0,0-1.13-.49,19.36,19.36,0,0,0-2.12-.54,8.33,8.33,0,0,1-.86-.22l-1.11-.38-2.4-.83c-1.68-.59-3.46-1.09-5.38-1.76l-6.08-2-13.67-4.43-3.58-1.17c-1.25-.4-2.5-.74-3.72-1.06s-2.42-.63-3.57-1L168,84.18c-.63-.19-1.28-.37-2-.51l-1.86-.35c-1.2-.22-2.37-.43-3.5-.66s-2.22-.5-3.22-.81c-.5-.15-1-.33-1.56-.52l-.83-.27-.78-.24c-.53-.15-1.07-.28-1.63-.38l-.63-.1-.57-.13A15,15,0,0,0,150,79.9a5,5,0,0,0-1.09,0,4.36,4.36,0,0,0-1.12.27,3.71,3.71,0,0,0-1.6,1.36,5.21,5.21,0,0,0-.67,1.55,6.92,6.92,0,0,0-.11,2.08,9.14,9.14,0,0,1,.06,1.81c0,.57-.11,1.17-.17,1.81-.05.44-.07.9-.08,1.36h-1.47c-5-.08-9.83,0-14.78-.85a268,268,0,0,1-30-6.86C94.12,81,89.41,79.09,84.73,77.2c-4.45-1.8-9.11-3.27-13.43-5.39-4.81-2.37-8.82-6-13-9.32-4-3.16-8.29-6-11.3-10.16,4.27-.49,8.67-.25,12.83-1.49a18.72,18.72,0,0,0,9.24-6.63c1.84-2.4,2.68-5.58,5.1-7.39,3.28-2.45-2.33-3.17-3.91-3.66-2.89-.88-3.3-3.79-3.47-6.51-.24-3.89,3.55-3.23,6.38-4,3.31-.87,8.56-2.64,10-6.14,1.69-4.21-2.27-5.63-5.54-6-5-.52-10.16.59-14.88,2-1.87.58-3.8,1.35-5.77.84a24.72,24.72,0,0,0-3.12-1.13,8.11,8.11,0,0,0-4,.76c0-1.64-.63-2.52-2.29-2.44a9.86,9.86,0,0,1-2.54.24A7,7,0,0,1,42.16,9a27.08,27.08,0,0,1-5-5.68A20.39,20.39,0,0,1,35.67,1.9C35,1.35,34.25.8,33.54.24L32.35.09C30.21,0,28.1,0,26,0c-2.32,0-4.65.1-6.94.29-2,.43-3.91.81-5.83,1.4l-.48.17C11.75,2.35,10.41,3,10,3.29s-.88.58-1.33.85c-.4.49-.79,1-1.14,1.43a6.48,6.48,0,0,0-.62.95C6,7.92,5.29,9.37,4.54,10.83c-.09.32-.17.6-.24.79A91.35,91.35,0,0,0,1,24.53c-.19,1-.33,2.1-.53,3.15a1.86,1.86,0,0,1-.08.41c0,1,0,1.91-.08,2.72v.44c.49.05,1,.12,1.36.14,1.1.05,5.87-.21,6.36,1.24a36.69,36.69,0,0,1-7.92,2.9c0,.65,0,1.29-.06,1.94,2.4-.25,5-1.65,6.83-2.56,1.55-.78,3.06-1.85,4.86-1.88,2.19,0,4.48.92,6.59,1.43,5.2,1.24,10.4,2.46,15.6,3.72,1.44.35,2.52.26,2.89,1.79.53,2.22,0,4.65.35,6.92A42.86,42.86,0,0,1,37.46,62a26.86,26.86,0,0,1-2.24,7,9.59,9.59,0,0,1-1.81,2.56c-.6.6-1.47,1.24-1.62,2.14-.65,4-4.84,6.76-7.67,9.19-3.81,3.29-7.2,7-11.57,9.62,1.92-9,5.51-17.63,9-26.13a60.27,60.27,0,0,0,4.07-12.7c.54-3.34.85-7.62-1.33-10.49-4-5.3-12-1.4-16.23,1.42-2.7,1.81-5.2,3.87-7.79,5.83,0,.6.08,1.2.12,1.79,2.61-1.94,5.14-4,7.86-5.82,3.45-2.28,8.46-5,12.71-3.26,4.92,2,3.8,9,2.85,13.11-1.44,6.25-4.34,12.11-6.69,18-1.45,3.67-3,7.34-4.19,11.1a28.78,28.78,0,0,0-1.26,5.18c-.06.46-.1,1-.21,1.53.23.36.45.72.68,1.07l.1.14c.78.87,1.56,1.74,2.41,2.56l.13.11.49.3c.62-.44,1.24-.9,1.83-1.39,4.92-4,9.32-8.69,13.89-13.11a67.18,67.18,0,0,0,6.09,7.87,51.68,51.68,0,0,0,8,6.37c5.75,4,11.64,7.85,17.72,11.29a121.59,121.59,0,0,0,19.88,8.53c6.93,2.43,14.16,3.59,21.4,4.66,3,.46,6.13.83,9.21,1,1.33.08,4.42-1,2.36-2.57-.35-.28-2-.27-1.94-1,0-.25,1.53-1.17,1.78-1.39.75-.65,1.46-1.35,2.15-2.07,1-1.08,2-2.21,3.06-3.31.74-.79,1.63-2.16,2.77-2.44s2.85.65,4,1c1.75.56,3.55.9,5.34,1.31,3.49.79,6.89,2,10.38,2.75s6.78.79,10.18,1.2c2,.25,4.35.78,6.32,0a3.39,3.39,0,0,0,2.27-2.84,3.45,3.45,0,0,0-.61-2.11c-.34-.58-1.09-.93-1.38-1.48-.65-1.21.48-1.18,1.42-1.81a6,6,0,0,0,.86-.73l.39.19c.66.32,1.37.68,2.12,1.09l1.24.68c.49.25,1,.5,1.49.73,1,.47,2,.88,3,1.31s2,.85,2.91,1.34l1.49.84c.54.3,1.09.58,1.65.85a55.52,55.52,0,0,0,7,2.8l7.16,2.24c2.3.78,4.59,1.74,6.92,2.67,1.17.47,2.34.93,3.53,1.35s2.48.79,3.61,1.11a22.57,22.57,0,0,1,3.09,1.07c.74.33,1.82,1.08,3,1.63a8.36,8.36,0,0,0,2,.71,4.25,4.25,0,0,0,1.42.07,3.73,3.73,0,0,0,1.52-.49A4.26,4.26,0,0,0,217,125.1a4.74,4.74,0,0,0,.38-.7,3.32,3.32,0,0,0,.24-.69,8,8,0,0,0,.22-2c0-1.17-.12-2.21-.18-3.08A2.12,2.12,0,0,0,217.67,118ZM54.16,66.15c1.34,1,2.69,2.07,4,3.15a68.85,68.85,0,0,0,9.45,6.93C66,78.23,64.67,76,63,74.78a18.27,18.27,0,0,0-7.36-3C49.76,70.64,43.89,71.63,38,72c-.27-1.32,5-3.52,5.81-4,2.34-1.21,4.77-2.25,7.1-3.49C52.06,64,53.35,65.52,54.16,66.15ZM49.43,62c1.54,1.27-3,2.94-3.74,3.29-1.8.9-4.35,3.59-6.49,3.25A33.37,33.37,0,0,0,42,54C44.76,56.34,46.61,59.62,49.43,62Zm6.92-36.54c2.23-.16,4.7-.84,6.9-.76,2.39.09,1.82,2.05,1.81,3.84,0,2.1,0,5,1.1,6.82.93,1.57,2.69,1.56,4.29,1.86-1.31,2.22-3.72,7.3-6.86,7-2.35-.22-4.45-2.79-6.08-4.35C57,39.35,55.91,38,55,38.08c-1.1.07-1.31,1.6-1.27,2.46.15,2.88,3.13,4.9,5,6.73C53,48,43.13,50.35,40.23,43.33c-.6-1.43-1.86-5.36,0-6.47.49-.29.48-.11,1.09-.06a7.71,7.71,0,0,0,3.84-.27c.94-.39,3.21-1.73,1.91-3-.89-.84-3.14-.42-4.28-.74.48-1.54,1.77-1.49,3-2s1.76-1.54,2.78-2.4a20.16,20.16,0,0,1,3.78-2.7C53.58,25.1,55,25.55,56.35,25.46ZM36.49,36.87c-.51,0-2.39-.74-2.14-1.53,1.8-5.81,6.11-10.34,10.27-14.57a35.36,35.36,0,0,1,5.25-4.91c1.21-.8,4.83-1.87,4.29.79-.46,2.26-4.4,4.18-6,5.54a65.5,65.5,0,0,0-6.81,6.62c-1.67,1.92-2.07,4.43-3.11,6.67C37.78,36.39,37.56,36.93,36.49,36.87Zm14,55.93c-2.84-2.12-6-3.68-8.89-5.75-2.27-1.63-4.5-3.42-6.64-5.23s-1.81-2.74-.42-4.88a7,7,0,0,1,5.28-3.58A54.63,54.63,0,0,1,49,73a28.59,28.59,0,0,1,9.9,1.77c1.42.55,5.83,2.33,5.82,4.32,0,.79-1.66,1.86-2.19,2.32-1.45,1.27-2.83,2.64-4.18,4-1,1-6.62,8.31-7.87,7.39Zm24.67,13.79c-3.47-1-6.75-3.25-9.9-5-3.51-1.94-7.07-3.85-10.52-5.9-1.36-.81-3.41-1.63-2.24-3.35a27.44,27.44,0,0,1,3.65-3.66c1.77-1.71,3.5-3.46,5.27-5.17.9-.87,3-3.42,4.49-3.2,1,.15,1.88,1.92,2.35,2.67,1,1.48,1.92,3,2.87,4.44,4.11,6.47,8.57,13.52,9.43,21.29-1.76-.71-3.51-1.57-5.37-2.12ZM107.5,116c-6.53-2-13.38-2.62-19.89-4.6-2.82-.86-5.18-1.67-5.92-4.69a62.69,62.69,0,0,0-2.84-9c-2.45-6-5.5-12.71-9.95-17.45-.78-.85-1.64-1.41-1.15-2.65s1.48-1.08,2.6-.61c2.85,1.25,5.56,2.51,8.53,3.55l2.92,1c2.92,1,5.83,2,8.72,3.15,3.71,1.4,7.57,2.21,11.33,3.43-.24.9-7.8.13-9,.22-2.5.18-5.31.46-6.9,2.65a2.18,2.18,0,0,0,.16,3.09l.24.19c2.24,1.93,6,2.39,8.77,2.84,4.93.79,10.46,1.77,13.21,6.4a13,13,0,0,1,1.44,8.12C109.59,112.64,109.25,116.49,107.5,116Zm16.85-14.43q-4.6,5.13-9.17,10.3c-.75.85-4.74,6.08-6.09,5.28,1.88-6.33,2.65-14.05-3.65-18.14C102,96.8,97.86,96.29,94,95.7c-2-.3-4.55-.44-6.26-1.66-2.55-1.82.53-3.28,2.32-3.61a32.79,32.79,0,0,1,8.28-.25,42.52,42.52,0,0,1,15.64,4.41C114.85,95,125.63,100.1,124.35,101.57ZM109.81,90c7.14,1.21,14.27,2.59,21.51,2.89-.85,1-4.67,7.16-6.24,5.86A57.66,57.66,0,0,0,109.81,90Zm42.12,22c-3-.71-6-1.19-9-2.18a117.48,117.48,0,0,0-17.32-4.29c1.14-1.43,2.51-2.49,3.33-4.15a24.76,24.76,0,0,1,2.59-3.75c1.57-2.11,2.54-4.89,5.53-4.79,3.22.11,6.59.72,9.81,1C148.72,94,167.09,95,167,97c-5.06.37-10.38.44-15.36,1.47-2.85.58-6.34,3.27-4.92,6.65,2.09,5,10,3.82,13,7.92C157.13,113.55,154.45,112.63,151.93,112Zm6.42-7.8c-2.43.93-4.59.31-6.74-.93,2.11-.71,6.9-2,8.52.16A16.48,16.48,0,0,1,158.35,104.2Zm55.5,18.57h-.2a4.3,4.3,0,0,1-1.09-.39c-.42-.21-.87-.46-1.35-.74l-.77-.45c-.26-.15-.67-.36-.94-.48a25.45,25.45,0,0,0-3.62-1.27c-1.18-.34-2.29-.63-3.36-1s-2.25-.84-3.4-1.3c-2.29-.92-4.65-1.91-7.12-2.75l-7.17-2.24a56.54,56.54,0,0,1-6.53-2.6c-.5-.25-1-.51-1.48-.78l-1.55-.86c-1.1-.58-2.19-1-3.22-1.49a43.85,43.85,0,0,1-5.42-2.55c-.81-.44-1.58-.82-2.27-1.16l-.9-.43a1,1,0,0,1,.6-.86c.82-.45,2.34-.4,3.28-.74,2.21-.77,5.23-2.34,5-5.13-.17-1.71-4.8-2.18-6-2.39-2.43-.45-4.89-.73-7.33-1.18-3.43-.63-6.91-1.24-10.4-1.6.07-.31.15-.64.24-1a19.7,19.7,0,0,0,.41-2,9,9,0,0,0,.09-1.27,7.08,7.08,0,0,0-.06-1.18,3.54,3.54,0,0,1,0-.92s0-.15.07-.19h.1c.34.06.67.14,1,.23l.74.17.75.13a12.24,12.24,0,0,1,1.2.27l.65.21.77.25c.52.18,1.08.38,1.67.56,1.2.36,2.38.64,3.58.89s2.4.47,3.6.68l1.74.33c.53.11,1.07.26,1.62.43,1.12.34,2.29.77,3.57,1.16s2.48.7,3.69,1,2.4.63,3.53,1l3.56,1.16,13.64,4.42,6.11,2.07c1.92.66,3.83,1.2,5.46,1.77l2.35.81,1.08.38a12.93,12.93,0,0,0,1.26.33,16.41,16.41,0,0,1,1.71.42,2.76,2.76,0,0,1,.47.2h0v.25q0,.38,0,.75v8.71a12,12,0,0,0,0,1.31c.07.88.2,1.75.31,2.58.05.42.1.83.13,1.24v1.38c.07,1,.17,2,.17,2.82a4.52,4.52,0,0,1,0,1Z"/><path class="cls-1" d="M95.92,59.94c1.27.74,2.6,1.36,3.91,2-.79,1-1.9,2-2,3.34,2.42-.48,2.76-3,5.6-2.8,3,.16,5.78,1.43,8.78,1.58,2.16.1,3-1.39.54-1.89-3.3-.67-6.56-1.44-9.83-2.23.42-1.18,1.2-2.75.57-4-1,.92-.74,3.08-2.25,3.52-1.1.32-3-.79-3.9-1.3-.66-.35-2.51-2-3.22-1.11S95.26,59.55,95.92,59.94Z"/><path class="cls-1" d="M3.35,52.19a24.17,24.17,0,0,1-2.78.73c.05.55.09,1.1.14,1.65l.09.84h0C2,55,10.18,53.41,9,51.17,8.26,49.71,4.28,51.85,3.35,52.19Z"/><path class="cls-1" d="M60.35,31.62c1,0,2.44-5.09.93-5.63C59.51,25.35,58.79,31.68,60.35,31.62Z"/></g></g></g></g></svg>