<svg xmlns="http://www.w3.org/2000/svg" viewBox="0 0 2000 2000"><defs><style>.cls-1,.cls-2,.cls-3{fill:none;}.cls-2,.cls-3{stroke:#000;stroke-miterlimit:10;stroke-width:20px;}.cls-3{stroke-linecap:round;}</style></defs><g id="Layer_2" data-name="Layer 2"><g id="Layer_1-2" data-name="Layer 1"><rect class="cls-1" width="2000" height="2000"/><rect class="cls-2" x="371.49" y="295.76" width="594.59" height="815.57" rx="36.44"/><line class="cls-2" x1="596.9" y1="1111.33" x2="596.9" y2="1217.07"/><path class="cls-3" d="M663.83,1111.33v105.74s-1.17,47.24,46.07,47.24h537.48v-153"/><line class="cls-2" x1="576.01" y1="1004.03" x2="889.28" y2="1004.03"/><path d="M620,297.71V203.23a49.06,49.06,0,0,1,98.12,0v94.48h18.17V203.23a67.23,67.23,0,0,0-134.46,0v94.48Z"/><circle class="cls-2" cx="489.06" cy="1004.03" r="37.64"/><circle class="cls-2" cx="1247.62" cy="1112.14" r="37.64"/><path class="cls-3" d="M729,1111.69V1281s-.91,58.73,57.28,58.73h668.25v-228.9"/><circle class="cls-2" cx="1454.75" cy="1112.14" r="37.64"/><ellipse class="cls-2" cx="1355.82" cy="450.33" rx="271.63" ry="29.98"/><path d="M1618.36,1169.83h18.17V452.21c0-.63,0-1.26-.06-1.88h-18.24a14.6,14.6,0,0,1,.13,1.88Z"/><path d="M1093.27,1169.83V452.21a14.6,14.6,0,0,1,.13-1.88h-18.24c0,.62-.06,1.25-.06,1.88v717.62Z"/><path d="M1536.82,1183.05c-49.67,5-114,7.67-181,7.67s-131.34-2.72-181-7.67c-47-4.68-67.56-10-76.34-13.22H1075.1c0,11.56,14.22,16.83,28.14,20.46,14.1,3.68,34.13,7,59.51,9.77,51.62,5.69,120.19,8.83,193.07,8.83s141.44-3.14,193.06-8.83c25.39-2.81,45.41-6.09,59.51-9.77,13.92-3.63,28.14-8.9,28.14-20.46h-23.37C1604.38,1173.09,1583.82,1178.37,1536.82,1183.05Z"/><polyline class="cls-2" points="1000.5 136.35 1068.74 324.05 1541.09 324.05 1592.02 136.35"/><path d="M1043.39,197.23c-.93,0-1.85,0-2.77-.09-20.77-1.41-33.83-18.28-34.38-19l8.82-6.71-4.41,3.35,4.4-3.36c.1.13,10.7,13.65,26.41,14.67,10.61.67,21.45-4.44,32.23-15.22l7.83,7.83C1069.22,191,1056.4,197.23,1043.39,197.23Z"/><path d="M1077.82,182l-7.82-7.83c13.17-13.17,26.93-19.37,40.9-18.43,20.76,1.41,33.82,18.28,34.37,19l-8.81,6.71,4.4-3.36-4.39,3.37c-.11-.14-10.7-13.65-26.41-14.67C1099.45,166.08,1088.6,171.2,1077.82,182Z"/><path d="M1170.29,197.23q-1.38,0-2.76-.09c-20.77-1.41-33.83-18.28-34.38-19l8.81-6.71-4.4,3.35,4.39-3.36c.11.13,10.7,13.65,26.41,14.67,10.61.67,21.46-4.44,32.24-15.22l7.83,7.83C1196.13,191,1183.31,197.23,1170.29,197.23Z"/><path d="M1204.73,182l-7.83-7.83c13.18-13.17,26.93-19.37,40.9-18.43,20.77,1.41,33.83,18.28,34.38,19l-8.82,6.71,4.41-3.36-4.39,3.37c-.11-.14-10.7-13.65-26.42-14.67C1226.36,166.08,1215.51,171.2,1204.73,182Z"/><path d="M1297.2,197.23c-.92,0-1.84,0-2.77-.09-20.76-1.41-33.82-18.28-34.37-19l8.81-6.71-4.4,3.35,4.39-3.36c.11.13,10.7,13.65,26.41,14.67,10.61.67,21.45-4.44,32.23-15.22l7.83,7.83C1323,191,1310.22,197.23,1297.2,197.23Z"/><path d="M1331.64,182l-7.83-7.83c13.17-13.17,26.93-19.37,40.9-18.43,20.77,1.41,33.83,18.28,34.37,19l-8.81,6.71,4.41-3.36-4.4,3.37c-.1-.14-10.7-13.65-26.41-14.67C1353.26,166.08,1342.42,171.2,1331.64,182Z"/><path d="M1424.11,197.23c-.92,0-1.85,0-2.77-.09-20.76-1.41-33.83-18.28-34.37-19l8.81-6.71-4.41,3.35,4.4-3.36c.1.13,10.7,13.65,26.41,14.67,10.61.67,21.45-4.44,32.23-15.22l7.83,7.83C1449.94,191,1437.12,197.23,1424.11,197.23Z"/><path d="M1551.87,197.23c-.92,0-1.85,0-2.77-.09-20.77-1.41-33.83-18.28-34.37-19l8.81-6.71-4.41,3.35,4.4-3.36c.1.13,10.7,13.65,26.41,14.67,10.61.67,21.45-4.44,32.23-15.22l7.83,7.83C1577.7,191,1564.88,197.23,1551.87,197.23Z"/><path d="M1458.55,182l-7.83-7.83c13.17-13.17,26.93-19.37,40.9-18.43,20.76,1.41,33.83,18.28,34.37,19l-8.81,6.71,4.41-3.36-4.4,3.37c-.11-.14-10.7-13.65-26.41-14.67C1480.17,166.08,1469.33,171.2,1458.55,182Z"/><path class="cls-3" d="M1285.26,324.05s70.56,15.12,70.56,116.79"/></g></g></svg>