<svg xmlns="http://www.w3.org/2000/svg" viewBox="0 0 2000 2000"><defs><style>.cls-1,.cls-2,.cls-3,.cls-4,.cls-5{fill:none;}.cls-2,.cls-4,.cls-5{stroke:#000;}.cls-2,.cls-3,.cls-4{stroke-miterlimit:10;}.cls-2,.cls-5{stroke-width:14px;}.cls-3{stroke:#cecece;stroke-width:10px;}.cls-4{stroke-width:20px;}.cls-5{stroke-linejoin:round;}</style></defs><g id="Layer_2" data-name="Layer 2"><g id="Layer_1-2" data-name="Layer 1"><rect class="cls-1" width="2000" height="2000"/><rect class="cls-2" x="675.11" y="739.08" width="242.89" height="333.16" rx="36.44"/><line class="cls-2" x1="723.52" y1="1072.24" x2="723.52" y2="1115.43"/><line class="cls-2" x1="759.77" y1="1072.24" x2="759.77" y2="1115.43"/><line class="cls-2" x1="796.01" y1="1072.24" x2="796.01" y2="1115.43"/><line class="cls-2" x1="832.26" y1="1072.24" x2="832.26" y2="1115.43"/><line class="cls-2" x1="868.5" y1="1072.24" x2="868.5" y2="1115.43"/><line class="cls-2" x1="758.65" y1="1028.41" x2="886.62" y2="1028.41"/><circle class="cls-2" cx="723.14" cy="1028.41" r="15.37"/><path class="cls-3" d="M1216,1282h170.21s-.71-163.62-174.77-163.62"/><path class="cls-3" d="M448,506V335.79s163.62.71,163.62,174.77"/><rect class="cls-3" x="1217" y="361" width="463" height="987"/><rect class="cls-3" x="376" y="174" width="841" height="338"/><rect class="cls-4" x="381" y="512" width="831" height="831"/><polyline class="cls-5" points="457 1150.03 457 1274 581.23 1274"/><path class="cls-2" d="M457,1274c0,.25,172-172,172-172"/><polyline class="cls-5" points="580.97 585 457 585 457 709.23"/><path class="cls-2" d="M457,585c-.25,0,172,172,172,172"/><polyline class="cls-5" points="1144.67 708.39 1144.67 584.42 1020.44 584.42"/><path class="cls-2" d="M1144.67,584.42c0-.25-172,172-172,172"/><polyline class="cls-5" points="1020.7 1273.42 1144.67 1273.42 1144.67 1149.19"/><path class="cls-2" d="M1144.67,1273.42c.25,0-172-172-172-172"/></g></g></svg>