<svg xmlns="http://www.w3.org/2000/svg" viewBox="0 0 2000 2000"><defs><style>.cls-1,.cls-2,.cls-3,.cls-4{fill:none;}.cls-2{stroke:#000;stroke-width:20px;}.cls-2,.cls-3,.cls-4{stroke-miterlimit:10;}.cls-3,.cls-4{stroke:#cecece;stroke-width:10px;}.cls-4{stroke-dasharray:38.48 38.48;}</style></defs><g id="Layer_2" data-name="Layer 2"><g id="Layer_1-2" data-name="Layer 1"><rect class="cls-1" width="2000" height="2000"/><rect class="cls-2" x="427.23" y="204" width="1159.5" height="1052"/><line class="cls-2" x1="1010" y1="110" x2="1010" y2="348"/><ellipse class="cls-2" cx="1009.5" cy="450.9" rx="471.5" ry="56.1"/><line class="cls-3" x1="684" y1="448" x2="684" y2="468"/><line class="cls-4" x1="684" y1="506.48" x2="684" y2="1333.76"/><line class="cls-3" x1="684" y1="1353" x2="684" y2="1373"/><line class="cls-3" x1="776.67" y1="448" x2="776.67" y2="468"/><line class="cls-4" x1="776.67" y1="506.48" x2="776.67" y2="1333.76"/><line class="cls-3" x1="776.67" y1="1353" x2="776.67" y2="1373"/><line class="cls-3" x1="869.33" y1="448" x2="869.33" y2="468"/><line class="cls-4" x1="869.33" y1="506.48" x2="869.33" y2="1333.76"/><line class="cls-3" x1="869.33" y1="1353" x2="869.33" y2="1373"/><line class="cls-3" x1="962" y1="448" x2="962" y2="468"/><line class="cls-4" x1="962" y1="506.48" x2="962" y2="1333.76"/><line class="cls-3" x1="962" y1="1353" x2="962" y2="1373"/><line class="cls-3" x1="1051" y1="448" x2="1051" y2="468"/><line class="cls-4" x1="1051" y1="506.48" x2="1051" y2="1333.76"/><line class="cls-3" x1="1051" y1="1353" x2="1051" y2="1373"/><line class="cls-3" x1="1143.67" y1="448" x2="1143.67" y2="468"/><line class="cls-4" x1="1143.67" y1="506.48" x2="1143.67" y2="1333.76"/><line class="cls-3" x1="1143.67" y1="1353" x2="1143.67" y2="1373"/><line class="cls-3" x1="1236.33" y1="448" x2="1236.33" y2="468"/><line class="cls-4" x1="1236.33" y1="506.48" x2="1236.33" y2="1333.76"/><line class="cls-3" x1="1236.33" y1="1353" x2="1236.33" y2="1373"/><line class="cls-3" x1="1329" y1="448" x2="1329" y2="468"/><line class="cls-4" x1="1329" y1="506.48" x2="1329" y2="1333.76"/><line class="cls-3" x1="1329" y1="1353" x2="1329" y2="1373"/><path class="cls-2" d="M538,450.9V395s62-47.18,472-47.18c0,0,424.5.68,471,47.18v55.9"/><path d="M996.49,1025.69v-277l-67.14,42.24v-32l71.59-44.46h22.23v311.25Z"/></g></g></svg>