<svg xmlns="http://www.w3.org/2000/svg" viewBox="0 0 821 821"><defs><style>.cls-1{fill:none;stroke-width:30px;}.cls-1,.cls-2{stroke:#000;stroke-miterlimit:10;}.cls-2{stroke-width:10px;}</style></defs><g id="Layer_2" data-name="Layer 2"><g id="Layer_1-2" data-name="Layer 1"><circle class="cls-1" cx="410.5" cy="410.5" r="395.5"/><path class="cls-2" d="M308.08,458l27.45-5.15q5.57,43.74,23.58,64.12t54.47,20.37q35.16,0,52.76-18.66t17.58-45.24q0-33.47-20.8-50T408,406.91H393.43V381.18h6q75.48,0,75.48-51.9,0-24.87-16.94-39.24t-44.82-14.37q-27,0-42.88,16.08T351,336.57l-27.44-4.72q4.28-37.31,28.52-59.61t61.11-22.3q39,0,64.34,20.8t25.3,58.54q0,25.74-14.8,42T453.47,391.9v.86a72.64,72.64,0,0,1,42,27q16.29,21,16.3,53.61,0,39-27.88,64.33T414,563Q369.84,563,342,537.5T308.08,458Z"/></g></g></svg>