<svg xmlns="http://www.w3.org/2000/svg" viewBox="0 0 2000 2000"><defs><style>.cls-1,.cls-2,.cls-3{fill:none;}.cls-1,.cls-3{stroke:#000;stroke-miterlimit:10;stroke-width:20px;}.cls-1{stroke-linecap:round;}</style></defs><g id="Layer_2" data-name="Layer 2"><g id="Layer_1-2" data-name="Layer 1"><path class="cls-1" d="M1285.26,172.05s70.56,15.12,70.56,116.79"/><rect class="cls-2" width="2000" height="2000"/><rect class="cls-3" x="371.49" y="295.76" width="594.59" height="815.57" rx="36.44"/><line class="cls-3" x1="596.9" y1="1111.33" x2="596.9" y2="1217.07"/><path class="cls-1" d="M663.83,1111.33v105.74s-1.17,47.24,46.07,47.24h537.48v-153"/><line class="cls-3" x1="576.01" y1="1004.03" x2="889.28" y2="1004.03"/><path d="M620,297.71V203.23a49.06,49.06,0,0,1,98.12,0v94.48h18.17V203.23a67.23,67.23,0,0,0-134.46,0v94.48Z"/><circle class="cls-3" cx="489.06" cy="1004.03" r="37.64"/><circle class="cls-3" cx="1247.62" cy="1112.14" r="37.64"/><path class="cls-1" d="M729,1111.69V1281s-.91,58.73,57.28,58.73h668.25V916"/><circle class="cls-3" cx="1454.75" cy="916.14" r="37.64"/><ellipse class="cls-3" cx="1356.24" cy="297.98" rx="270.76" ry="29.88"/><path d="M1618.36,1169.83h18.17V513c0-.58,0-1.15-.06-215h-18.24c.08,213.83.13,214.41.13,215Z"/><path d="M1093.27,1169.83V513c0-.58,0-1.16.13-215h-18.24c0,213.84-.06,214.41-.06,215v656.84Z"/><path d="M1536.82,1183.05c-49.67,5-114,7.67-181,7.67s-131.34-2.72-181-7.67c-47-4.68-67.56-10-76.34-13.22H1075.1c0,11.56,14.22,16.83,28.14,20.46,14.1,3.68,34.13,7,59.51,9.77,51.62,5.69,120.19,8.83,193.07,8.83s141.44-3.14,193.06-8.83c25.39-2.81,45.41-6.09,59.51-9.77,13.92-3.63,28.14-8.9,28.14-20.46h-23.37C1604.38,1173.09,1583.82,1178.37,1536.82,1183.05Z"/></g></g></svg>